<?xml version="1.0" encoding="UTF-8" standalone="no"?>
<svg width="28px" height="33px" viewBox="0 0 28 33" version="1.1" xmlns="http://www.w3.org/2000/svg" xmlns:xlink="http://www.w3.org/1999/xlink" xmlns:sketch="http://www.bohemiancoding.com/sketch/ns">
    <!-- Generator: Sketch 3.5.2 (25235) - http://www.bohemiancoding.com/sketch -->
    <title>cal</title>
    <desc>Created with Sketch.</desc>
    <defs></defs>
    <g id="Page-1" stroke="none" stroke-width="1" fill="none" fill-rule="evenodd" sketch:type="MSPage">
        <g id="Mobile" sketch:type="MSArtboardGroup" transform="translate(-211.000000, -4222.000000)" fill="#FFFFFF">
            <g id="footer" sketch:type="MSLayerGroup" transform="translate(0.000000, 3851.000000)">
                <g id="social" transform="translate(81.000000, 371.599998)" sketch:type="MSShapeGroup">
                    <g id="cal" transform="translate(130.000000, 0.000000)">
                        <g id="Group">
                            <path d="M0,10.1818182 L0,29.2428182 C0,30.6654091 1.13972727,31.8181818 2.54545455,31.8181818 L25.4545455,31.8181818 C26.8602727,31.8181818 28,30.6654091 28,29.2428182 L28,10.1818182 L0,10.1818182 L0,10.1818182 Z M7,29.9090909 L1.90909091,29.9090909 L1.90909091,24.8181818 L7,24.8181818 L7,29.9090909 L7,29.9090909 Z M7,23.5454545 L1.90909091,23.5454545 L1.90909091,18.4545455 L7,18.4545455 L7,23.5454545 L7,23.5454545 Z M7,17.1818182 L1.90909091,17.1818182 L1.90909091,12.0909091 L7,12.0909091 L7,17.1818182 L7,17.1818182 Z M13.3636364,29.9090909 L8.27272727,29.9090909 L8.27272727,24.8181818 L13.3636364,24.8181818 L13.3636364,29.9090909 L13.3636364,29.9090909 Z M13.3636364,23.5454545 L8.27272727,23.5454545 L8.27272727,18.4545455 L13.3636364,18.4545455 L13.3636364,23.5454545 L13.3636364,23.5454545 Z M13.3636364,17.1818182 L8.27272727,17.1818182 L8.27272727,12.0909091 L13.3636364,12.0909091 L13.3636364,17.1818182 L13.3636364,17.1818182 Z M19.7272727,29.9090909 L14.6363636,29.9090909 L14.6363636,24.8181818 L19.7272727,24.8181818 L19.7272727,29.9090909 L19.7272727,29.9090909 Z M19.7272727,23.5454545 L14.6363636,23.5454545 L14.6363636,18.4545455 L19.7272727,18.4545455 L19.7272727,23.5454545 L19.7272727,23.5454545 Z M19.7272727,17.1818182 L14.6363636,17.1818182 L14.6363636,12.0909091 L19.7272727,12.0909091 L19.7272727,17.1818182 L19.7272727,17.1818182 Z M26.0909091,29.9090909 L21,29.9090909 L21,24.8181818 L26.0909091,24.8181818 L26.0909091,29.9090909 L26.0909091,29.9090909 Z M26.0909091,23.5454545 L21,23.5454545 L21,18.4545455 L26.0909091,18.4545455 L26.0909091,23.5454545 L26.0909091,23.5454545 Z M26.0909091,17.1818182 L21,17.1818182 L21,12.0909091 L26.0909091,12.0909091 L26.0909091,17.1818182 L26.0909091,17.1818182 Z" id="Shape"></path>
                            <path d="M25.4545455,3.81818182 L21.3181818,3.81818182 L21.3181818,0.954545455 C21.3181818,0.427318182 20.8905455,0 20.3636364,0 C19.8364091,0 19.4090909,0.427318182 19.4090909,0.954545455 L19.4090909,3.81818182 L8.59090909,3.81818182 L8.59090909,0.954545455 C8.59090909,0.427318182 8.16327273,0 7.63636364,0 C7.10913636,0 6.68181818,0.427318182 6.68181818,0.954545455 L6.68181818,3.81818182 L2.54545455,3.81818182 C1.13972727,3.81818182 0,4.97095455 0,6.39322727 L0,8.59090909 L0,8.59090909 L0,8.90909091 L28,8.90909091 L28,8.59090909 L28,8.59090909 L28,6.39322727 C28,4.97095455 26.8602727,3.81818182 25.4545455,3.81818182 L25.4545455,3.81818182 Z M7.63636364,8.27272727 C6.58222727,8.27272727 5.72727273,7.41777273 5.72727273,6.36363636 C5.72727273,5.65759091 6.11195455,5.04254545 6.68181818,4.71227273 L6.68181818,6.36363636 C6.68181818,6.89086364 7.10913636,7.31818182 7.63636364,7.31818182 C8.16327273,7.31818182 8.59090909,6.89086364 8.59090909,6.36363636 L8.59090909,4.71195455 C9.16109091,5.04222727 9.54545455,5.65759091 9.54545455,6.36363636 C9.54545455,7.41777273 8.69081818,8.27272727 7.63636364,8.27272727 L7.63636364,8.27272727 Z M20.3636364,8.27272727 C19.3095,8.27272727 18.4545455,7.41777273 18.4545455,6.36363636 C18.4545455,5.65759091 18.8392273,5.04254545 19.4090909,4.71227273 L19.4090909,6.36363636 C19.4090909,6.89086364 19.8364091,7.31818182 20.3636364,7.31818182 C20.8905455,7.31818182 21.3181818,6.89086364 21.3181818,6.36363636 L21.3181818,4.71195455 C21.8883636,5.04222727 22.2727273,5.65759091 22.2727273,6.36363636 C22.2727273,7.41777273 21.4180909,8.27272727 20.3636364,8.27272727 L20.3636364,8.27272727 Z" id="Shape"></path>
                        </g>
                    </g>
                </g>
            </g>
        </g>
    </g>
</svg>