<?xml version="1.0" encoding="utf-8"?>
<!-- Generator: Adobe Illustrator 19.1.0, SVG Export Plug-In . SVG Version: 6.00 Build 0)  -->
<svg version="1.1" id="Layer_1" xmlns="http://www.w3.org/2000/svg" xmlns:xlink="http://www.w3.org/1999/xlink" x="0px" y="0px"
	 viewBox="0 0 325.2 82.5" style="enable-background:new 0 0 325.2 82.5;" xml:space="preserve">
<style type="text/css">
	.st0{fill:#8E251D;}
	.st1{fill:#C4D4D4;}
	.st2{fill:#EE4323;}
</style>
<polygon class="st0" points="232,28.1 230.5,30.4 227.7,25 "/>
<g>
	<path class="st1" d="M2.1,65.5h2v16.6h-2V65.5z"/>
	<path class="st1" d="M11.1,65.5h2.5l9.6,13.8h0V65.5h2v16.6h-2.5l-9.6-13.8h0v13.8h-2V65.5z"/>
	<path class="st1" d="M40.2,68.4c-0.3-0.5-0.8-0.9-1.3-1.2c-0.5-0.2-1.1-0.4-1.7-0.4c-0.4,0-0.9,0.1-1.3,0.2
		c-0.4,0.1-0.8,0.3-1.1,0.5c-0.3,0.2-0.6,0.5-0.8,0.9c-0.2,0.4-0.3,0.8-0.3,1.3c0,0.4,0.1,0.7,0.2,1s0.3,0.6,0.6,0.8
		c0.3,0.2,0.6,0.5,1.1,0.7c0.5,0.2,1,0.4,1.7,0.6c0.6,0.2,1.3,0.4,1.9,0.7c0.6,0.2,1.1,0.5,1.6,0.9c0.5,0.4,0.8,0.8,1.1,1.4
		c0.3,0.5,0.4,1.2,0.4,2c0,0.8-0.2,1.5-0.5,2.2c-0.3,0.6-0.8,1.1-1.3,1.5c-0.5,0.4-1.2,0.7-1.9,0.9c-0.7,0.2-1.4,0.3-2.2,0.3
		c-0.5,0-1,0-1.5-0.1c-0.5-0.1-1-0.2-1.4-0.4c-0.4-0.2-0.9-0.4-1.3-0.7c-0.4-0.3-0.7-0.6-1-1.1l1.7-1.4c0.4,0.6,0.9,1.1,1.5,1.4
		c0.6,0.3,1.3,0.5,2,0.5c0.4,0,0.8-0.1,1.3-0.2c0.4-0.1,0.8-0.3,1.2-0.6c0.3-0.2,0.6-0.5,0.8-0.9c0.2-0.4,0.3-0.8,0.3-1.2
		c0-0.5-0.1-0.9-0.3-1.3c-0.2-0.3-0.4-0.6-0.8-0.8c-0.4-0.2-0.8-0.4-1.4-0.6c-0.5-0.2-1.2-0.4-1.9-0.7c-0.6-0.2-1.1-0.4-1.6-0.6
		c-0.5-0.2-0.9-0.5-1.3-0.9c-0.4-0.4-0.7-0.8-0.9-1.3c-0.2-0.5-0.3-1.1-0.3-1.8c0-0.8,0.2-1.5,0.5-2.1c0.3-0.6,0.7-1.1,1.3-1.5
		c0.5-0.4,1.1-0.7,1.8-0.9c0.7-0.2,1.4-0.3,2.1-0.3c0.9,0,1.8,0.1,2.6,0.4c0.8,0.3,1.5,0.8,2.1,1.5L40.2,68.4z"/>
	<path class="st1" d="M48.3,65.5h4.9c0.8,0,1.5,0.1,2.2,0.2c0.7,0.1,1.3,0.4,1.9,0.8c0.5,0.4,1,0.8,1.3,1.4c0.3,0.6,0.5,1.3,0.5,2.2
		c0,0.9-0.2,1.7-0.5,2.3c-0.3,0.6-0.8,1.1-1.3,1.4c-0.5,0.3-1.1,0.6-1.8,0.7c-0.6,0.1-1.3,0.2-1.8,0.2h-3.3v7.5h-2V65.5z M50.3,72.8
		h3.3c1,0,1.8-0.2,2.4-0.7C56.7,71.7,57,71,57,70c0-0.9-0.3-1.6-0.9-2.1c-0.6-0.4-1.4-0.7-2.4-0.7h-3.3V72.8z"/>
	<path class="st1" d="M65.2,65.5h2v16.6h-2V65.5z"/>
	<path class="st1" d="M74.2,65.5h4.2c0.8,0,1.6,0,2.4,0.1c0.8,0.1,1.5,0.3,2.1,0.6s1.1,0.8,1.5,1.4c0.4,0.6,0.6,1.4,0.6,2.5
		c0,1.2-0.4,2.2-1.1,3c-0.7,0.8-1.8,1.2-3.1,1.4l4.7,7.7h-2.4l-4.5-7.5h-2.5v7.5h-2V65.5z M76.2,72.8H78c0.5,0,1.1,0,1.7,0
		c0.6,0,1.1-0.1,1.6-0.3c0.5-0.2,0.9-0.4,1.2-0.8c0.3-0.4,0.5-0.9,0.5-1.6c0-0.6-0.1-1.1-0.4-1.4c-0.2-0.4-0.5-0.6-0.9-0.8
		c-0.4-0.2-0.8-0.3-1.3-0.4c-0.5-0.1-1-0.1-1.4-0.1h-2.8V72.8z"/>
	<path class="st1" d="M91.5,65.5h10.4v1.8h-8.5v5.2h7.9v1.8h-7.9v5.9h8.9v1.8H91.5V65.5z"/>
	<path class="st1" d="M108.1,65.5h6.4c0.5,0,1.1,0.1,1.7,0.2c0.6,0.1,1.2,0.3,1.8,0.6c0.6,0.3,1.2,0.6,1.7,1.1c0.6,0.4,1,1,1.5,1.6
		c0.4,0.6,0.8,1.3,1,2.1c0.3,0.8,0.4,1.7,0.4,2.7c0,1-0.1,1.9-0.4,2.7c-0.2,0.8-0.6,1.5-1,2.1c-0.4,0.6-0.9,1.1-1.5,1.6
		c-0.6,0.4-1.1,0.8-1.7,1.1c-0.6,0.3-1.2,0.5-1.8,0.6c-0.6,0.1-1.2,0.2-1.7,0.2h-6.4V65.5z M110,80.3h3.8c1,0,1.8-0.1,2.7-0.4
		c0.8-0.2,1.5-0.6,2.1-1.2c0.6-0.5,1.1-1.2,1.4-2c0.3-0.8,0.5-1.8,0.5-2.9c0-1.1-0.2-2.1-0.5-2.9c-0.3-0.8-0.8-1.5-1.4-2
		c-0.6-0.5-1.3-0.9-2.1-1.2c-0.8-0.2-1.7-0.4-2.7-0.4H110V80.3z"/>
	<path class="st1" d="M136.2,65.5h2.2l3.8,13.8h0l4.1-13.8h2.2l4.1,13.8h0l3.9-13.8h2.1l-4.9,16.6h-2.1L147.4,68h0l-4.1,14.1h-2.2
		L136.2,65.5z"/>
	<path class="st1" d="M171.4,82.5c-1.3,0-2.4-0.2-3.5-0.7c-1.1-0.4-2-1-2.7-1.8c-0.8-0.8-1.4-1.7-1.8-2.8c-0.4-1.1-0.6-2.2-0.6-3.5
		c0-1.3,0.2-2.4,0.6-3.5c0.4-1.1,1-2,1.8-2.8c0.8-0.8,1.7-1.4,2.7-1.8c1.1-0.4,2.2-0.7,3.5-0.7c1.3,0,2.4,0.2,3.5,0.7
		c1.1,0.4,2,1,2.7,1.8c0.8,0.8,1.4,1.7,1.8,2.8c0.4,1.1,0.6,2.2,0.6,3.5c0,1.3-0.2,2.4-0.6,3.5c-0.4,1.1-1,2-1.8,2.8
		c-0.8,0.8-1.7,1.4-2.7,1.8C173.8,82.3,172.7,82.5,171.4,82.5z M171.4,80.7c1,0,1.9-0.2,2.7-0.5c0.8-0.4,1.5-0.9,2.1-1.5
		c0.6-0.6,1-1.4,1.3-2.2c0.3-0.8,0.5-1.7,0.5-2.7c0-1-0.2-1.8-0.5-2.7c-0.3-0.8-0.8-1.6-1.3-2.2c-0.6-0.6-1.3-1.1-2.1-1.5
		c-0.8-0.4-1.7-0.5-2.7-0.5s-1.9,0.2-2.7,0.5c-0.8,0.4-1.5,0.9-2.1,1.5c-0.6,0.6-1,1.4-1.3,2.2c-0.3,0.8-0.5,1.7-0.5,2.7
		c0,1,0.2,1.9,0.5,2.7c0.3,0.8,0.8,1.6,1.3,2.2c0.6,0.6,1.3,1.1,2.1,1.5C169.6,80.5,170.4,80.7,171.4,80.7z"/>
	<path class="st1" d="M186.2,65.5h4.2c0.8,0,1.6,0,2.4,0.1c0.8,0.1,1.5,0.3,2.1,0.6c0.6,0.3,1.1,0.8,1.5,1.4
		c0.4,0.6,0.6,1.4,0.6,2.5c0,1.2-0.4,2.2-1.1,3c-0.7,0.8-1.8,1.2-3.1,1.4l4.7,7.7h-2.4l-4.5-7.5h-2.5v7.5h-2V65.5z M188.2,72.8h1.8
		c0.5,0,1.1,0,1.7,0c0.6,0,1.1-0.1,1.6-0.3c0.5-0.2,0.9-0.4,1.2-0.8c0.3-0.4,0.5-0.9,0.5-1.6c0-0.6-0.1-1.1-0.4-1.4
		c-0.2-0.4-0.5-0.6-0.9-0.8c-0.4-0.2-0.8-0.3-1.3-0.4c-0.5-0.1-1-0.1-1.4-0.1h-2.8V72.8z"/>
	<path class="st1" d="M203.5,65.5h2v7.2h0.3l7.6-7.2h2.8l-8.2,7.6l8.6,9h-2.9l-7.9-8.5h-0.3v8.5h-2V65.5z"/>
	<path class="st1" d="M229.1,68.4c-0.3-0.5-0.8-0.9-1.3-1.2c-0.5-0.2-1.1-0.4-1.7-0.4c-0.4,0-0.9,0.1-1.3,0.2
		c-0.4,0.1-0.8,0.3-1.1,0.5c-0.3,0.2-0.6,0.5-0.8,0.9c-0.2,0.4-0.3,0.8-0.3,1.3c0,0.4,0.1,0.7,0.2,1c0.1,0.3,0.3,0.6,0.6,0.8
		c0.3,0.2,0.6,0.5,1.1,0.7c0.5,0.2,1,0.4,1.7,0.6c0.6,0.2,1.3,0.4,1.9,0.7c0.6,0.2,1.1,0.5,1.6,0.9c0.5,0.4,0.8,0.8,1.1,1.4
		c0.3,0.5,0.4,1.2,0.4,2c0,0.8-0.2,1.5-0.5,2.2c-0.3,0.6-0.8,1.1-1.3,1.5c-0.5,0.4-1.2,0.7-1.9,0.9c-0.7,0.2-1.4,0.3-2.2,0.3
		c-0.5,0-1,0-1.5-0.1c-0.5-0.1-1-0.2-1.4-0.4c-0.4-0.2-0.9-0.4-1.3-0.7c-0.4-0.3-0.7-0.6-1-1.1l1.7-1.4c0.4,0.6,0.9,1.1,1.5,1.4
		c0.6,0.3,1.3,0.5,2,0.5c0.4,0,0.8-0.1,1.3-0.2c0.4-0.1,0.8-0.3,1.2-0.6c0.3-0.2,0.6-0.5,0.8-0.9c0.2-0.4,0.3-0.8,0.3-1.2
		c0-0.5-0.1-0.9-0.3-1.3c-0.2-0.3-0.4-0.6-0.8-0.8c-0.4-0.2-0.8-0.4-1.4-0.6c-0.5-0.2-1.2-0.4-1.9-0.7c-0.6-0.2-1.1-0.4-1.6-0.6
		c-0.5-0.2-0.9-0.5-1.3-0.9c-0.4-0.4-0.7-0.8-0.9-1.3c-0.2-0.5-0.3-1.1-0.3-1.8c0-0.8,0.2-1.5,0.5-2.1c0.3-0.6,0.7-1.1,1.3-1.5
		c0.5-0.4,1.1-0.7,1.8-0.9c0.7-0.2,1.4-0.3,2.1-0.3c0.9,0,1.8,0.1,2.6,0.4c0.8,0.3,1.5,0.8,2.1,1.5L229.1,68.4z"/>
	<path class="st1" d="M237.2,65.5h4.9c0.8,0,1.5,0.1,2.2,0.2c0.7,0.1,1.3,0.4,1.9,0.8c0.5,0.4,1,0.8,1.3,1.4
		c0.3,0.6,0.5,1.3,0.5,2.2c0,0.9-0.2,1.7-0.5,2.3c-0.3,0.6-0.8,1.1-1.3,1.4c-0.5,0.3-1.1,0.6-1.8,0.7c-0.6,0.1-1.3,0.2-1.8,0.2h-3.3
		v7.5h-2V65.5z M239.2,72.8h3.3c1,0,1.8-0.2,2.4-0.7c0.6-0.4,0.9-1.1,0.9-2.1c0-0.9-0.3-1.6-0.9-2.1c-0.6-0.4-1.4-0.7-2.4-0.7h-3.3
		V72.8z"/>
	<path class="st1" d="M257.7,65.5h1.9l7.1,16.6h-2.3l-1.7-4.1h-8.3l-1.7,4.1h-2.2L257.7,65.5z M258.6,68L258.6,68l-3.5,8.2h6.8
		L258.6,68z"/>
	<path class="st1" d="M283.4,68.9c-0.5-0.7-1.1-1.2-1.9-1.5c-0.7-0.3-1.5-0.5-2.3-0.5c-0.9,0-1.8,0.2-2.5,0.6
		c-0.8,0.4-1.4,0.9-2,1.5c-0.6,0.6-1,1.4-1.3,2.2c-0.3,0.8-0.5,1.7-0.5,2.6c0,1,0.2,1.9,0.5,2.7c0.3,0.8,0.7,1.6,1.3,2.2
		c0.6,0.6,1.2,1.1,2,1.5c0.8,0.4,1.6,0.5,2.6,0.5c1,0,1.9-0.2,2.7-0.6c0.8-0.4,1.5-1,2.1-1.7l1.5,1.2c-0.8,1-1.7,1.7-2.7,2.2
		c-1.1,0.5-2.2,0.7-3.6,0.7c-1.2,0-2.3-0.2-3.3-0.7c-1-0.4-1.9-1-2.7-1.8c-0.8-0.8-1.4-1.7-1.8-2.8c-0.4-1.1-0.6-2.2-0.6-3.5
		c0-1.2,0.2-2.4,0.6-3.4c0.4-1.1,1-2,1.7-2.8c0.8-0.8,1.6-1.4,2.7-1.9c1-0.5,2.2-0.7,3.4-0.7c1.1,0,2.2,0.2,3.3,0.6
		c1,0.4,1.9,1.1,2.6,2L283.4,68.9z"/>
	<path class="st1" d="M291.2,65.5h10.4v1.8h-8.5v5.2h7.9v1.8h-7.9v5.9h8.9v1.8h-10.9V65.5z"/>
	<path class="st1" d="M316,68.4c-0.3-0.5-0.8-0.9-1.3-1.2c-0.5-0.2-1.1-0.4-1.7-0.4c-0.4,0-0.9,0.1-1.3,0.2
		c-0.4,0.1-0.8,0.3-1.1,0.5c-0.3,0.2-0.6,0.5-0.8,0.9c-0.2,0.4-0.3,0.8-0.3,1.3c0,0.4,0.1,0.7,0.2,1c0.1,0.3,0.3,0.6,0.6,0.8
		c0.3,0.2,0.6,0.5,1.1,0.7c0.5,0.2,1,0.4,1.7,0.6c0.6,0.2,1.3,0.4,1.9,0.7c0.6,0.2,1.1,0.5,1.6,0.9c0.5,0.4,0.8,0.8,1.1,1.4
		c0.3,0.5,0.4,1.2,0.4,2c0,0.8-0.2,1.5-0.5,2.2c-0.3,0.6-0.8,1.1-1.3,1.5c-0.5,0.4-1.2,0.7-1.9,0.9c-0.7,0.2-1.4,0.3-2.2,0.3
		c-0.5,0-1,0-1.5-0.1c-0.5-0.1-1-0.2-1.4-0.4c-0.4-0.2-0.9-0.4-1.3-0.7c-0.4-0.3-0.7-0.6-1-1.1l1.7-1.4c0.4,0.6,0.9,1.1,1.5,1.4
		c0.6,0.3,1.3,0.5,2,0.5c0.4,0,0.8-0.1,1.3-0.2c0.4-0.1,0.8-0.3,1.2-0.6c0.3-0.2,0.6-0.5,0.8-0.9c0.2-0.4,0.3-0.8,0.3-1.2
		c0-0.5-0.1-0.9-0.3-1.3c-0.2-0.3-0.4-0.6-0.8-0.8c-0.4-0.2-0.8-0.4-1.4-0.6c-0.5-0.2-1.2-0.4-1.9-0.7c-0.6-0.2-1.1-0.4-1.6-0.6
		c-0.5-0.2-0.9-0.5-1.3-0.9c-0.4-0.4-0.7-0.8-0.9-1.3c-0.2-0.5-0.3-1.1-0.3-1.8c0-0.8,0.2-1.5,0.5-2.1c0.3-0.6,0.7-1.1,1.3-1.5
		c0.5-0.4,1.1-0.7,1.8-0.9c0.7-0.2,1.4-0.3,2.1-0.3c0.9,0,1.8,0.1,2.6,0.4c0.8,0.3,1.5,0.8,2.1,1.5L316,68.4z"/>
</g>
<polygon class="st2" points="170.2,48.9 152.6,9.1 150.8,18.5 164.2,48.9 "/>
<polygon class="st2" points="88.5,48.9 70.9,9.1 68.8,17.9 82.5,48.9 "/>
<polygon class="st2" points="239.7,5.9 228.3,24.3 232.5,27.4 246.6,5.9 "/>
<path class="st2" d="M110.5,14.9v34H105V12L110.5,14.9z"/>
<path class="st2" d="M34.6,38.9c-1.5,1.9-3.3,3.4-5.4,4.4c-2,1-4.4,1.5-7,1.5c-2.4,0-4.6-0.5-6.6-1.4c-2-0.9-3.7-2.2-5.1-3.8
	c-1.4-1.6-2.6-3.5-3.4-5.6c-0.8-2.1-1.2-4.5-1.2-7c0-2.3,0.4-4.6,1.2-6.7c0.8-2.1,1.9-4.1,3.4-5.7c1.4-1.6,3.2-2.9,5.2-3.9
	c2-1,4.2-1.4,6.5-1.4c2,0,4,0.4,5.9,1.3c1.9,0.9,3.5,2.2,4.8,3.9l0.1,0.2l4.8-3.5L37.7,11c-1.8-2.4-4.2-4.2-6.9-5.3
	c-2.7-1.1-5.6-1.6-8.5-1.6c-3.2,0-6.2,0.6-8.9,1.8c-2.7,1.2-5.1,2.8-7,4.9c-2,2-3.5,4.5-4.6,7.3c-1.1,2.8-1.6,5.8-1.6,9
	c0,3.3,0.6,6.4,1.7,9.2c1.1,2.8,2.7,5.2,4.7,7.3c2,2,4.4,3.6,7.1,4.8c2.7,1.1,5.7,1.7,8.8,1.7c3.5,0,6.6-0.6,9.4-1.9
	c2.8-1.2,5.2-3.2,7.1-5.8l0.1-0.2l-4.2-3.5L34.6,38.9z"/>
<path class="st2" d="M279.7,32c-0.7-1.4-1.7-2.6-2.9-3.5c-1.2-0.9-2.6-1.7-4.2-2.3c-1.6-0.6-3.2-1.2-4.8-1.7c-1.7-0.5-3.1-1-4.3-1.6
	c-1.1-0.5-2.1-1.1-2.7-1.7c-0.7-0.6-1.1-1.2-1.4-1.9c-0.3-0.7-0.4-1.6-0.4-2.5c0-1.2,0.3-2.3,0.8-3.2c0.5-0.9,1.2-1.6,2-2.2
	c0.8-0.6,1.8-1,2.9-1.2c1.1-0.3,2.2-0.4,3.3-0.4c1.5,0,3,0.3,4.3,0.9c1.4,0.6,2.5,1.6,3.3,2.9l0.1,0.2l4.5-3.9L280,9.7
	c-1.6-1.9-3.4-3.2-5.4-4c-2-0.7-4.3-1.1-6.7-1.1c-1.9,0-3.8,0.3-5.5,0.8c-1.7,0.5-3.3,1.3-4.7,2.4c-1.4,1-2.5,2.4-3.3,3.9
	c-0.8,1.6-1.2,3.4-1.2,5.5c0,1.8,0.3,3.4,0.8,4.6c0.6,1.3,1.3,2.4,2.3,3.3c1,0.9,2.1,1.7,3.4,2.3c1.3,0.6,2.7,1.2,4.3,1.7
	c1.9,0.6,3.5,1.2,5,1.7c1.4,0.5,2.6,1,3.5,1.6c0.9,0.6,1.6,1.3,2,2.1c0.4,0.8,0.6,1.8,0.6,3.1c0,1.2-0.3,2.2-0.8,3.1
	c-0.5,0.9-1.3,1.7-2.1,2.3c-0.9,0.6-1.8,1.1-2.9,1.4c-2.9,0.9-5.8,0.5-8.4-0.7c-1.6-0.8-2.9-2-3.8-3.5l-0.1-0.2l-4.7,3.8l0.1,0.2
	c0.7,1.1,1.6,2,2.6,2.8c1,0.8,2.1,1.4,3.3,1.8c1.2,0.5,2.4,0.8,3.6,1c1.3,0.2,2.5,0.3,3.8,0.3c1.9,0,3.9-0.3,5.7-0.8
	c1.8-0.5,3.5-1.3,4.9-2.3c1.4-1,2.6-2.4,3.4-4c0.9-1.6,1.3-3.5,1.3-5.7C280.8,35.2,280.4,33.4,279.7,32z"/>
<rect x="89.8" y="5.9" class="st2" width="35.9" height="5.1"/>
<polygon class="st2" points="208.9,48.9 191.2,48.9 188.9,43.8 208.9,43.8 "/>
<polygon class="st2" points="110.5,14.9 105,12 105,11 110.5,11 "/>
<path class="st2" d="M310,14.9v34h-5.5V12L310,14.9z"/>
<rect x="289.3" y="5.9" class="st2" width="35.9" height="5.1"/>
<polygon class="st2" points="310,14.9 304.6,12 304.6,11 310,11 "/>
<rect x="182.4" y="5.9" class="st2" width="5.5" height="42.9"/>
<polygon class="st2" points="191.2,48.9 187.8,48.9 187.8,43.8 188.9,43.8 "/>
<polygon class="st2" points="228.3,24.3 232.5,27.4 230.5,30.6 227.7,25.2 "/>
<polygon class="st2" points="133,48.9 151.6,6.8 148.6,0 127,48.9 "/>
<polygon class="st2" points="151.6,6.8 148.6,13.5 150.8,18.5 152.6,9.1 "/>
<polygon class="st2" points="215.8,5.9 208.9,5.9 225,30.6 225,48.9 230.5,48.9 230.5,30.6 227.7,25.2 "/>
<polygon class="st2" points="51.3,48.9 69.9,6.8 66.9,0 45.3,48.9 "/>
<polygon class="st2" points="68.2,3 69.9,6.8 66.9,13.5 68.8,17.9 70.9,9.1 "/>
</svg>
