<?xml version="1.0" encoding="UTF-8" standalone="no"?>
<svg width="326px" height="83px" viewBox="0 0 326 83" version="1.1" xmlns="http://www.w3.org/2000/svg" xmlns:xlink="http://www.w3.org/1999/xlink">
    <!-- Generator: Sketch 3.6.1 (26313) - http://www.bohemiancoding.com/sketch -->
    <title>Group</title>
    <desc>Created with Sketch.</desc>
    <defs>
        <path id="path-1" d="M0,82.5118 L325.22,82.5118 L325.22,-0.0002 L0,-0.0002 L0,82.5118 Z"></path>
    </defs>
    <g id="Page-1" stroke="none" stroke-width="1" fill="none" fill-rule="evenodd">
        <g id="Group">
            <path d="M227.795708,25.1126338 L227.7435,25.0095 L227.823493,25.0680391 L228.3067,24.2925 L239.7197,5.9395 L246.6227,5.9395 L232.5367,27.4425 L230.4737,30.5915 L230.4737,48.8775 L225.0157,48.8775 L225.0157,30.5915 L208.8667,5.9395 L215.7687,5.9395 L227.7447,25.1945 L227.795708,25.1126338 Z" id="Combined-Shape" fill="#EE4323"></path>
            <path d="M2.108,82.0888 L4.08,82.0888 L4.08,65.4678 L2.108,65.4678 L2.108,82.0888 Z" id="Fill-2" fill="#C4D4D4"></path>
            <path d="M23.3064,65.4676 L23.3064,79.2716 L23.2594,79.2716 L13.6354,65.4676 L11.1454,65.4676 L11.1454,82.0886 L13.1184,82.0886 L13.1184,68.2856 L13.1654,68.2856 L22.7894,82.0886 L25.2784,82.0886 L25.2784,65.4676 L23.3064,65.4676 Z" id="Fill-3" fill="#C4D4D4"></path>
            <path d="M40.2324,68.4034 C39.9034,67.8704 39.4644,67.4834 38.9164,67.2414 C38.3694,66.9984 37.7974,66.8774 37.2034,66.8774 C36.7654,66.8774 36.3344,66.9314 35.9124,67.0414 C35.4904,67.1514 35.1104,67.3154 34.7734,67.5344 C34.4374,67.7534 34.1664,68.0434 33.9634,68.4034 C33.7604,68.7624 33.6594,69.1854 33.6594,69.6714 C33.6594,70.0464 33.7174,70.3784 33.8344,70.6684 C33.9524,70.9584 34.1434,71.2194 34.4104,71.4544 C34.6754,71.6884 35.0364,71.9094 35.4904,72.1124 C35.9434,72.3154 36.4994,72.5184 37.1564,72.7214 C37.7974,72.9254 38.4204,73.1444 39.0234,73.3804 C39.6254,73.6144 40.1574,73.9114 40.6194,74.2714 C41.0814,74.6324 41.4484,75.0814 41.7224,75.6224 C41.9964,76.1614 42.1334,76.8394 42.1334,77.6524 C42.1334,78.4814 41.9684,79.2014 41.6404,79.8114 C41.3114,80.4214 40.8774,80.9264 40.3374,81.3264 C39.7974,81.7244 39.1754,82.0224 38.4714,82.2174 C37.7664,82.4134 37.0394,82.5114 36.2884,82.5114 C35.8024,82.5114 35.3174,82.4674 34.8334,82.3824 C34.3474,82.2964 33.8814,82.1634 33.4354,81.9834 C32.9894,81.8034 32.5714,81.5684 32.1794,81.2794 C31.7884,80.9894 31.4524,80.6334 31.1694,80.2114 L32.8604,78.8264 C33.2204,79.4364 33.7204,79.8974 34.3634,80.2114 C35.0044,80.5244 35.6854,80.6804 36.4054,80.6804 C36.8284,80.6804 37.2534,80.6184 37.6844,80.4924 C38.1154,80.3674 38.5024,80.1834 38.8464,79.9404 C39.1914,79.6984 39.4724,79.3974 39.6924,79.0374 C39.9114,78.6764 40.0204,78.2624 40.0204,77.7934 C40.0204,77.2764 39.9344,76.8574 39.7624,76.5374 C39.5894,76.2164 39.3244,75.9384 38.9634,75.7044 C38.6044,75.4684 38.1504,75.2574 37.6024,75.0694 C37.0544,74.8824 36.4134,74.6634 35.6774,74.4134 C35.0834,74.2244 34.5354,74.0094 34.0344,73.7664 C33.5334,73.5244 33.0984,73.2274 32.7314,72.8744 C32.3634,72.5224 32.0744,72.1004 31.8634,71.6064 C31.6514,71.1144 31.5454,70.5234 31.5454,69.8354 C31.5454,69.0364 31.7024,68.3414 32.0154,67.7454 C32.3284,67.1514 32.7504,66.6534 33.2834,66.2554 C33.8154,65.8554 34.4184,65.5534 35.0904,65.3504 C35.7634,65.1474 36.4674,65.0464 37.2034,65.0464 C38.1424,65.0464 38.9994,65.1904 39.7744,65.4794 C40.5484,65.7694 41.2414,66.2744 41.8514,66.9944 L40.2324,68.4034 L40.2324,68.4034 Z" id="Fill-4" fill="#C4D4D4"></path>
            <path d="M50.3037,72.792 L53.6367,72.792 C54.6227,72.792 55.4247,72.569 56.0427,72.124 C56.6607,71.677 56.9707,70.985 56.9707,70.046 C56.9707,69.106 56.6607,68.415 56.0427,67.968 C55.4247,67.522 54.6227,67.3 53.6367,67.3 L50.3037,67.3 L50.3037,72.792 Z M48.3307,65.468 L53.2617,65.468 C54.0287,65.468 54.7597,65.542 55.4557,65.691 C56.1527,65.841 56.7707,66.091 57.3107,66.442 C57.8507,66.794 58.2817,67.265 58.6017,67.851 C58.9227,68.438 59.0827,69.162 59.0827,70.022 C59.0827,70.931 58.9107,71.682 58.5667,72.276 C58.2227,72.871 57.7807,73.341 57.2407,73.685 C56.6997,74.029 56.1097,74.272 55.4677,74.413 C54.8257,74.554 54.2157,74.624 53.6367,74.624 L50.3037,74.624 L50.3037,82.089 L48.3307,82.089 L48.3307,65.468 Z" id="Fill-6" fill="#C4D4D4"></path>
            <mask id="mask-2" fill="white">
                <use xlink:href="#path-1"></use>
            </mask>
            <g id="Clip-9"></g>
            <path d="M65.186,82.0888 L67.159,82.0888 L67.159,65.4678 L65.186,65.4678 L65.186,82.0888 Z" id="Fill-8" fill="#C4D4D4" mask="url(#mask-2)"></path>
            <path d="M76.1962,72.792 L77.9572,72.792 C78.5042,72.792 79.0712,72.777 79.6582,72.745 C80.2452,72.714 80.7852,72.612 81.2782,72.44 C81.7712,72.269 82.1782,71.999 82.4992,71.63 C82.8192,71.263 82.9802,70.735 82.9802,70.046 C82.9802,69.451 82.8632,68.974 82.6282,68.614 C82.3932,68.254 82.0842,67.977 81.7012,67.78 C81.3172,67.585 80.8872,67.456 80.4102,67.394 C79.9322,67.331 79.4512,67.3 78.9662,67.3 L76.1962,67.3 L76.1962,72.792 Z M74.2232,65.468 L78.4722,65.468 C79.2712,65.468 80.0652,65.515 80.8552,65.608 C81.6452,65.703 82.3542,65.907 82.9802,66.22 C83.6062,66.532 84.1152,66.99 84.5062,67.593 C84.8972,68.195 85.0922,69.013 85.0922,70.046 C85.0922,71.267 84.7252,72.253 83.9902,73.004 C83.2542,73.755 82.2372,74.233 80.9382,74.437 L85.6562,82.089 L83.2382,82.089 L78.7312,74.624 L76.1962,74.624 L76.1962,82.089 L74.2232,82.089 L74.2232,65.468 Z" id="Fill-10" fill="#C4D4D4" mask="url(#mask-2)"></path>
            <path d="M91.5009,65.4678 L101.9479,65.4678 L101.9479,67.2998 L93.4739,67.2998 L93.4739,72.5108 L101.3849,72.5108 L101.3849,74.3418 L93.4739,74.3418 L93.4739,80.2578 L102.3699,80.2578 L102.3699,82.0888 L91.5009,82.0888 L91.5009,65.4678 Z" id="Fill-11" fill="#C4D4D4" mask="url(#mask-2)"></path>
            <path d="M110.0234,80.2579 L113.7794,80.2579 C114.7344,80.2579 115.6184,80.1329 116.4324,79.8819 C117.2464,79.6319 117.9504,79.2449 118.5444,78.7199 C119.1394,78.1959 119.6094,77.5279 119.9544,76.7129 C120.2974,75.8999 120.4704,74.9209 120.4704,73.7789 C120.4704,72.6359 120.2974,71.6579 119.9544,70.8449 C119.6094,70.0299 119.1394,69.3619 118.5444,68.8369 C117.9504,68.3139 117.2464,67.9249 116.4324,67.6749 C115.6184,67.4249 114.7344,67.2999 113.7794,67.2999 L110.0234,67.2999 L110.0234,80.2579 Z M108.0514,65.4679 L114.4374,65.4679 C114.9844,65.4679 115.5634,65.5299 116.1734,65.6549 C116.7844,65.7809 117.3904,65.9819 117.9934,66.2549 C118.5954,66.5289 119.1744,66.8849 119.7304,67.3229 C120.2864,67.7609 120.7754,68.2889 121.1984,68.9069 C121.6204,69.5269 121.9574,70.2369 122.2074,71.0439 C122.4584,71.8509 122.5834,72.7609 122.5834,73.7789 C122.5834,74.7959 122.4584,75.7079 122.2074,76.5139 C121.9574,77.3199 121.6204,78.0309 121.1984,78.6499 C120.7754,79.2689 120.2864,79.7959 119.7304,80.2349 C119.1744,80.6729 118.5954,81.0289 117.9934,81.3029 C117.3904,81.5759 116.7844,81.7769 116.1734,81.9019 C115.5634,82.0269 114.9844,82.0889 114.4374,82.0889 L108.0514,82.0889 L108.0514,65.4679 Z" id="Fill-12" fill="#C4D4D4" mask="url(#mask-2)"></path>
            <path d="M136.2216,65.4678 L138.4056,65.4678 L142.1846,79.2718 L142.2316,79.2718 L146.3166,65.4678 L148.5236,65.4678 L152.5836,79.2718 L152.6306,79.2718 L156.4816,65.4678 L158.5466,65.4678 L153.6636,82.0888 L151.5286,82.0888 L147.4196,68.0028 L147.3726,68.0028 L143.2416,82.0888 L141.0806,82.0888 L136.2216,65.4678 Z" id="Fill-13" fill="#C4D4D4" mask="url(#mask-2)"></path>
            <path d="M171.4121,80.6807 C172.3831,80.6807 173.2701,80.5007 174.0771,80.1407 C174.8831,79.7807 175.5751,79.2867 176.1541,78.6607 C176.7331,78.0357 177.1831,77.3037 177.5041,76.4667 C177.8251,75.6297 177.9851,74.7337 177.9851,73.7787 C177.9851,72.8247 177.8251,71.9287 177.5041,71.0907 C177.1831,70.2527 176.7331,69.5227 176.1541,68.8957 C175.5751,68.2707 174.8831,67.7767 174.0771,67.4167 C173.2701,67.0567 172.3831,66.8767 171.4121,66.8767 C170.4411,66.8767 169.5541,67.0567 168.7481,67.4167 C167.9411,67.7767 167.2491,68.2707 166.6701,68.8957 C166.0911,69.5227 165.6411,70.2527 165.3201,71.0907 C164.9991,71.9287 164.8391,72.8247 164.8391,73.7787 C164.8391,74.7337 164.9991,75.6297 165.3201,76.4667 C165.6411,77.3037 166.0911,78.0357 166.6701,78.6607 C167.2491,79.2867 167.9411,79.7807 168.7481,80.1407 C169.5541,80.5007 170.4411,80.6807 171.4121,80.6807 M171.4121,82.5117 C170.1441,82.5117 168.9821,82.2917 167.9261,81.8547 C166.8701,81.4157 165.9541,80.8097 165.1801,80.0357 C164.4051,79.2597 163.8021,78.3367 163.3721,77.2647 C162.9411,76.1927 162.7261,75.0307 162.7261,73.7787 C162.7261,72.5267 162.9411,71.3647 163.3721,70.2917 C163.8021,69.2207 164.4051,68.2967 165.1801,67.5227 C165.9541,66.7467 166.8701,66.1417 167.9261,65.7037 C168.9821,65.2647 170.1441,65.0457 171.4121,65.0457 C172.6801,65.0457 173.8421,65.2647 174.8981,65.7037 C175.9551,66.1417 176.8701,66.7467 177.6451,67.5227 C178.4201,68.2967 179.0221,69.2207 179.4531,70.2917 C179.8831,71.3647 180.0981,72.5267 180.0981,73.7787 C180.0981,75.0307 179.8831,76.1927 179.4531,77.2647 C179.0221,78.3367 178.4201,79.2597 177.6451,80.0357 C176.8701,80.8097 175.9551,81.4157 174.8981,81.8547 C173.8421,82.2917 172.6801,82.5117 171.4121,82.5117" id="Fill-14" fill="#C4D4D4" mask="url(#mask-2)"></path>
            <path d="M188.1738,72.792 L189.9348,72.792 C190.4818,72.792 191.0488,72.777 191.6358,72.745 C192.2228,72.714 192.7628,72.612 193.2558,72.44 C193.7488,72.269 194.1548,71.999 194.4768,71.63 C194.7968,71.263 194.9578,70.735 194.9578,70.046 C194.9578,69.451 194.8408,68.974 194.6058,68.614 C194.3708,68.254 194.0618,67.977 193.6788,67.78 C193.2948,67.585 192.8638,67.456 192.3878,67.394 C191.9098,67.331 191.4288,67.3 190.9438,67.3 L188.1738,67.3 L188.1738,72.792 Z M186.2008,65.468 L190.4498,65.468 C191.2488,65.468 192.0428,65.515 192.8328,65.608 C193.6228,65.703 194.3318,65.907 194.9578,66.22 C195.5838,66.532 196.0928,66.99 196.4838,67.593 C196.8748,68.195 197.0698,69.013 197.0698,70.046 C197.0698,71.267 196.7028,72.253 195.9678,73.004 C195.2318,73.755 194.2148,74.233 192.9158,74.437 L197.6338,82.089 L195.2158,82.089 L190.7088,74.624 L188.1738,74.624 L188.1738,82.089 L186.2008,82.089 L186.2008,65.468 Z" id="Fill-15" fill="#C4D4D4" mask="url(#mask-2)"></path>
            <path d="M203.4785,65.4678 L205.4515,65.4678 L205.4515,72.6518 L205.7325,72.6518 L213.2915,65.4678 L216.1315,65.4678 L207.9155,73.0508 L216.5315,82.0888 L213.6435,82.0888 L205.7325,73.6378 L205.4515,73.6378 L205.4515,82.0888 L203.4785,82.0888 L203.4785,65.4678 Z" id="Fill-16" fill="#C4D4D4" mask="url(#mask-2)"></path>
            <path d="M229.0918,68.4034 C228.7628,67.8704 228.3238,67.4834 227.7768,67.2414 C227.2288,66.9984 226.6568,66.8774 226.0628,66.8774 C225.6248,66.8774 225.1948,66.9314 224.7718,67.0414 C224.3498,67.1514 223.9698,67.3154 223.6328,67.5344 C223.2968,67.7534 223.0268,68.0434 222.8228,68.4034 C222.6198,68.7624 222.5188,69.1854 222.5188,69.6714 C222.5188,70.0464 222.5768,70.3784 222.6948,70.6684 C222.8118,70.9584 223.0028,71.2194 223.2698,71.4544 C223.5348,71.6884 223.8958,71.9094 224.3498,72.1124 C224.8028,72.3154 225.3588,72.5184 226.0158,72.7214 C226.6568,72.9254 227.2798,73.1444 227.8828,73.3804 C228.4848,73.6144 229.0168,73.9114 229.4788,74.2714 C229.9408,74.6324 230.3078,75.0814 230.5818,75.6224 C230.8558,76.1614 230.9928,76.8394 230.9928,77.6524 C230.9928,78.4814 230.8278,79.2014 230.4998,79.8114 C230.1708,80.4214 229.7378,80.9264 229.1968,81.3264 C228.6568,81.7244 228.0348,82.0224 227.3308,82.2174 C226.6258,82.4134 225.8988,82.5114 225.1478,82.5114 C224.6618,82.5114 224.1768,82.4674 223.6928,82.3824 C223.2068,82.2964 222.7408,82.1634 222.2948,81.9834 C221.8488,81.8034 221.4308,81.5684 221.0388,81.2794 C220.6478,80.9894 220.3118,80.6334 220.0288,80.2114 L221.7198,78.8264 C222.0798,79.4364 222.5798,79.8974 223.2228,80.2114 C223.8638,80.5244 224.5448,80.6804 225.2648,80.6804 C225.6878,80.6804 226.1128,80.6184 226.5438,80.4924 C226.9748,80.3674 227.3628,80.1834 227.7058,79.9404 C228.0508,79.6984 228.3318,79.3974 228.5518,79.0374 C228.7708,78.6764 228.8798,78.2624 228.8798,77.7934 C228.8798,77.2764 228.7938,76.8574 228.6218,76.5374 C228.4488,76.2164 228.1838,75.9384 227.8228,75.7044 C227.4638,75.4684 227.0098,75.2574 226.4618,75.0694 C225.9138,74.8824 225.2728,74.6634 224.5368,74.4134 C223.9428,74.2244 223.3948,74.0094 222.8938,73.7664 C222.3928,73.5244 221.9578,73.2274 221.5908,72.8744 C221.2228,72.5224 220.9338,72.1004 220.7228,71.6064 C220.5108,71.1144 220.4048,70.5234 220.4048,69.8354 C220.4048,69.0364 220.5618,68.3414 220.8748,67.7454 C221.1878,67.1514 221.6108,66.6534 222.1428,66.2554 C222.6748,65.8554 223.2778,65.5534 223.9498,65.3504 C224.6228,65.1474 225.3268,65.0464 226.0628,65.0464 C227.0018,65.0464 227.8588,65.1904 228.6338,65.4794 C229.4078,65.7694 230.1008,66.2744 230.7108,66.9944 L229.0918,68.4034 Z" id="Fill-17" fill="#C4D4D4" mask="url(#mask-2)"></path>
            <path d="M239.1621,72.792 L242.4951,72.792 C243.4811,72.792 244.2831,72.569 244.9011,72.124 C245.5191,71.677 245.8291,70.985 245.8291,70.046 C245.8291,69.106 245.5191,68.415 244.9011,67.968 C244.2831,67.522 243.4811,67.3 242.4951,67.3 L239.1621,67.3 L239.1621,72.792 Z M237.1891,65.468 L242.1201,65.468 C242.8871,65.468 243.6181,65.542 244.3141,65.691 C245.0111,65.841 245.6291,66.091 246.1691,66.442 C246.7091,66.794 247.1401,67.265 247.4601,67.851 C247.7811,68.438 247.9411,69.162 247.9411,70.022 C247.9411,70.931 247.7691,71.682 247.4251,72.276 C247.0811,72.871 246.6391,73.341 246.0981,73.685 C245.5581,74.029 244.9681,74.272 244.3261,74.413 C243.6841,74.554 243.0741,74.624 242.4951,74.624 L239.1621,74.624 L239.1621,82.089 L237.1891,82.089 L237.1891,65.468 Z" id="Fill-18" fill="#C4D4D4" mask="url(#mask-2)"></path>
            <path d="M258.5996,68.003 L258.5526,68.003 L255.1016,76.173 L261.8856,76.173 L258.5996,68.003 Z M257.7066,65.468 L259.5616,65.468 L266.6276,82.089 L264.3276,82.089 L262.6376,78.004 L254.3276,78.004 L252.6136,82.089 L250.3826,82.089 L257.7066,65.468 Z" id="Fill-19" fill="#C4D4D4" mask="url(#mask-2)"></path>
            <path d="M283.413,68.8955 C282.912,68.2225 282.294,67.7175 281.559,67.3815 C280.822,67.0455 280.056,66.8775 279.258,66.8775 C278.334,66.8775 277.485,67.0645 276.711,67.4405 C275.935,67.8155 275.267,68.3205 274.703,68.9545 C274.14,69.5885 273.702,70.3235 273.389,71.1615 C273.075,71.9995 272.919,72.8715 272.919,73.7785 C272.919,74.7495 273.075,75.6535 273.389,76.4905 C273.702,77.3275 274.136,78.0545 274.691,78.6725 C275.247,79.2915 275.912,79.7805 276.688,80.1405 C277.462,80.5005 278.318,80.6805 279.258,80.6805 C280.274,80.6805 281.183,80.4805 281.98,80.0825 C282.779,79.6825 283.475,79.1075 284.07,78.3565 L285.549,79.6005 C284.798,80.6025 283.895,81.3375 282.838,81.8075 C281.781,82.2765 280.588,82.5115 279.258,82.5115 C278.068,82.5115 276.957,82.2915 275.924,81.8545 C274.892,81.4165 273.995,80.8095 273.236,80.0355 C272.477,79.2595 271.882,78.3405 271.452,77.2765 C271.021,76.2115 270.807,75.0455 270.807,73.7785 C270.807,72.5575 271.014,71.4155 271.429,70.3505 C271.843,69.2875 272.427,68.3645 273.178,67.5815 C273.929,66.7985 274.82,66.1805 275.853,65.7265 C276.887,65.2725 278.021,65.0455 279.258,65.0455 C280.385,65.0455 281.468,65.2495 282.509,65.6555 C283.55,66.0635 284.422,66.7275 285.127,67.6515 L283.413,68.8955 Z" id="Fill-20" fill="#C4D4D4" mask="url(#mask-2)"></path>
            <path d="M291.2294,65.4678 L301.6764,65.4678 L301.6764,67.2998 L293.2024,67.2998 L293.2024,72.5108 L301.1134,72.5108 L301.1134,74.3418 L293.2024,74.3418 L293.2024,80.2578 L302.0984,80.2578 L302.0984,82.0888 L291.2294,82.0888 L291.2294,65.4678 Z" id="Fill-21" fill="#C4D4D4" mask="url(#mask-2)"></path>
            <path d="M315.9736,68.4034 C315.6446,67.8704 315.2056,67.4834 314.6586,67.2414 C314.1106,66.9984 313.5386,66.8774 312.9446,66.8774 C312.5066,66.8774 312.0766,66.9314 311.6536,67.0414 C311.2316,67.1514 310.8516,67.3154 310.5146,67.5344 C310.1786,67.7534 309.9086,68.0434 309.7046,68.4034 C309.5016,68.7624 309.4006,69.1854 309.4006,69.6714 C309.4006,70.0464 309.4586,70.3784 309.5766,70.6684 C309.6936,70.9584 309.8846,71.2194 310.1516,71.4544 C310.4166,71.6884 310.7776,71.9094 311.2316,72.1124 C311.6846,72.3154 312.2406,72.5184 312.8976,72.7214 C313.5386,72.9254 314.1616,73.1444 314.7646,73.3804 C315.3666,73.6144 315.8986,73.9114 316.3606,74.2714 C316.8226,74.6324 317.1896,75.0814 317.4636,75.6224 C317.7376,76.1614 317.8746,76.8394 317.8746,77.6524 C317.8746,78.4814 317.7096,79.2014 317.3816,79.8114 C317.0526,80.4214 316.6186,80.9264 316.0786,81.3264 C315.5386,81.7244 314.9166,82.0224 314.2126,82.2174 C313.5076,82.4134 312.7806,82.5114 312.0296,82.5114 C311.5436,82.5114 311.0586,82.4674 310.5746,82.3824 C310.0886,82.2964 309.6226,82.1634 309.1766,81.9834 C308.7306,81.8034 308.3126,81.5684 307.9206,81.2794 C307.5296,80.9894 307.1936,80.6334 306.9106,80.2114 L308.6016,78.8264 C308.9616,79.4364 309.4616,79.8974 310.1046,80.2114 C310.7456,80.5244 311.4266,80.6804 312.1466,80.6804 C312.5696,80.6804 312.9946,80.6184 313.4256,80.4924 C313.8566,80.3674 314.2436,80.1834 314.5876,79.9404 C314.9326,79.6984 315.2136,79.3974 315.4336,79.0374 C315.6526,78.6764 315.7616,78.2624 315.7616,77.7934 C315.7616,77.2764 315.6756,76.8574 315.5036,76.5374 C315.3306,76.2164 315.0656,75.9384 314.7046,75.7044 C314.3456,75.4684 313.8916,75.2574 313.3436,75.0694 C312.7956,74.8824 312.1546,74.6634 311.4186,74.4134 C310.8246,74.2244 310.2766,74.0094 309.7756,73.7664 C309.2746,73.5244 308.8396,73.2274 308.4726,72.8744 C308.1046,72.5224 307.8156,72.1004 307.6046,71.6064 C307.3926,71.1144 307.2866,70.5234 307.2866,69.8354 C307.2866,69.0364 307.4436,68.3414 307.7566,67.7454 C308.0696,67.1514 308.4916,66.6534 309.0246,66.2554 C309.5566,65.8554 310.1586,65.5534 310.8316,65.3504 C311.5046,65.1474 312.2086,65.0464 312.9446,65.0464 C313.8836,65.0464 314.7406,65.1904 315.5156,65.4794 C316.2896,65.7694 316.9826,66.2744 317.5926,66.9944 L315.9736,68.4034 Z" id="Fill-22" fill="#C4D4D4" mask="url(#mask-2)"></path>
            <path d="M34.5937,38.8575 C33.0727,40.7815 31.2647,42.2755 29.2227,43.2955 C27.1817,44.3165 24.8257,44.8345 22.2187,44.8345 C19.8167,44.8345 17.5927,44.3675 15.6117,43.4455 C13.6277,42.5255 11.9007,41.2565 10.4827,39.6725 C9.0587,38.0915 7.9297,36.2015 7.1257,34.0545 C6.3247,31.9075 5.9167,29.5525 5.9167,27.0625 C5.9167,24.7335 6.3247,22.4635 7.1257,20.3155 C7.9307,18.1685 9.0697,16.2575 10.5117,14.6335 C11.9537,13.0125 13.6937,11.7015 15.6777,10.7385 C17.6567,9.7795 19.8597,9.2935 22.2187,9.2935 C24.2607,9.2935 26.2467,9.7275 28.1267,10.5865 C30.0017,11.4455 31.5997,12.7505 32.8777,14.4685 L33.0007,14.6325 L37.8027,11.1445 L37.6727,10.9765 C35.8247,8.5535 33.5007,6.7845 30.7667,5.7125 C28.0417,4.6485 25.1667,4.1085 22.2187,4.1085 C18.9867,4.1085 15.9747,4.7115 13.2717,5.8995 C10.5707,7.0875 8.2007,8.7285 6.2347,10.7765 C4.2657,12.8245 2.7177,15.2765 1.6347,18.0605 C0.5497,20.8435 -0.0003,23.8715 -0.0003,27.0625 C-0.0003,30.3775 0.5707,33.4685 1.6977,36.2525 C2.8197,39.0315 4.3987,41.4725 6.3887,43.5045 C8.3727,45.5335 10.7527,47.1415 13.4557,48.2895 C16.1657,49.4355 19.1137,50.0175 22.2187,50.0175 C25.6987,50.0175 28.8647,49.3945 31.6297,48.1665 C34.4047,46.9315 36.8077,44.9765 38.7747,42.3525 L38.8927,42.1955 L34.7287,38.6905 L34.5937,38.8575 Z" id="Fill-23" fill="#EE4323" mask="url(#mask-2)"></path>
            <path d="M279.6738,31.9746 C278.9568,30.5646 277.9828,29.3726 276.7758,28.4316 C275.5718,27.4956 274.1728,26.7106 272.6138,26.1036 C271.0628,25.5016 269.4438,24.9296 267.7938,24.4086 C266.1168,23.8896 264.6818,23.3626 263.5248,22.8446 C262.3798,22.3326 261.4618,21.7746 260.7948,21.1836 C260.1358,20.6026 259.6548,19.9486 259.3668,19.2356 C259.0758,18.5186 258.9318,17.6796 258.9318,16.7426 C258.9318,15.5346 259.1848,14.4706 259.6888,13.5806 C260.1898,12.6896 260.8688,11.9606 261.7088,11.4136 C262.5558,10.8626 263.5218,10.4446 264.5778,10.1706 C265.6468,9.8936 266.7498,9.7546 267.8528,9.7546 C269.3478,9.7546 270.8038,10.0636 272.1838,10.6726 C273.5518,11.2816 274.6598,12.2606 275.4778,13.5876 L275.6058,13.7926 L280.1098,9.8736 L279.9788,9.7196 C278.3928,7.8476 276.5618,6.5156 274.5448,5.7606 C272.5358,5.0106 270.2858,4.6286 267.8528,4.6286 C265.9458,4.6286 264.0948,4.8956 262.3538,5.4236 C260.6058,5.9526 259.0178,6.7456 257.6348,7.7826 C256.2448,8.8246 255.1268,10.1386 254.3098,11.6896 C253.4928,13.2456 253.0768,15.0886 253.0768,17.1666 C253.0768,18.9596 253.3568,20.5236 253.9088,21.8116 C254.4628,23.1006 255.2308,24.2226 256.1958,25.1446 C257.1528,26.0626 258.2988,26.8466 259.6018,27.4756 C260.8908,28.1016 262.3238,28.6656 263.8568,29.1506 C265.7498,29.7956 267.4028,30.3596 268.8158,30.8436 C270.2028,31.3206 271.3678,31.8596 272.2748,32.4536 C273.1678,33.0356 273.8358,33.7326 274.2618,34.5236 C274.6878,35.3176 274.9028,36.3706 274.9028,37.6606 C274.9028,38.8256 274.6288,39.8676 274.0878,40.7586 C273.5388,41.6586 272.8258,42.4216 271.9648,43.0256 C271.1058,43.6346 270.1208,44.1016 269.0348,44.4166 C266.1158,45.2696 263.1918,44.9546 260.6268,43.7046 C259.0178,42.9176 257.7438,41.7456 256.8448,40.2166 L256.7238,40.0116 L252.0418,43.8486 L252.1458,44.0026 C252.8788,45.1056 253.7718,46.0476 254.7928,46.8036 C255.8088,47.5576 256.9118,48.1756 258.0718,48.6436 C259.2288,49.1096 260.4538,49.4586 261.7108,49.6816 C262.9688,49.9046 264.2418,50.0176 265.4938,50.0176 C267.4418,50.0176 269.3508,49.7616 271.1758,49.2556 C272.9988,48.7476 274.6398,47.9636 276.0458,46.9236 C277.4518,45.8866 278.6018,44.5516 279.4588,42.9566 C280.3188,41.3636 280.7538,39.4606 280.7538,37.2986 C280.7538,35.1876 280.3908,33.3946 279.6738,31.9746" id="Fill-24" fill="#EE4323" mask="url(#mask-2)"></path>
            <path d="M89.8154,5.9395 L89.8154,11.0095 L105.0204,11.0095 L105.0204,12.0325 L105.0204,48.8775 L110.4814,48.8775 L110.4814,14.8645 L110.4814,11.0095 L125.6864,11.0095 L125.6864,5.9395 L89.8154,5.9395 Z" id="Fill-25" fill="#EE4323" mask="url(#mask-2)"></path>
            <path d="M289.3486,5.9395 L289.3486,11.0095 L304.5536,11.0095 L304.5536,12.0325 L304.5536,48.8775 L310.0136,48.8775 L310.0136,14.8645 L310.0136,11.0095 L325.2196,11.0095 L325.2196,5.9395 L289.3486,5.9395 Z" id="Fill-26" fill="#EE4323" mask="url(#mask-2)"></path>
            <path d="M188.8711,43.8106 L187.8481,43.8106 L187.8481,5.9396 L182.3881,5.9396 L182.3881,48.8766 L187.8481,48.8766 L191.2261,48.8766 L208.9031,48.8766 L208.9031,43.8106 L188.8711,43.8106 Z" id="Fill-27" fill="#EE4323" mask="url(#mask-2)"></path>
            <path d="M152.6132,9.0879 L151.5892,6.7659 L148.6062,13.5279 L150.7952,18.4939 L164.2012,48.8769 L170.1682,48.8769 L152.6132,9.0879 Z M148.6064,-1.42108547e-14 L127.0414,48.877 L133.0094,48.877 L151.5884,6.763 L148.6064,-1.42108547e-14 Z" id="Combined-Shape" fill="#EE4323" mask="url(#mask-2)"></path>
            <path d="M70.9062,9.0879 L68.2282,3.0149 L69.8812,6.7629 L66.8972,13.5279 L68.8282,17.9029 L82.4922,48.8769 L88.4622,48.8769 L70.9062,9.0879 Z M66.8974,-1.42108547e-14 L45.3354,48.877 L51.3024,48.877 L69.8804,6.763 L66.8974,-1.42108547e-14 Z" id="Combined-Shape" fill="#EE4323" mask="url(#mask-2)"></path>
        </g>
    </g>
</svg>