<?xml version="1.0" encoding="UTF-8" standalone="no"?>
<svg width="100px" height="66px" viewBox="0 0 100 66" version="1.1" xmlns="http://www.w3.org/2000/svg" xmlns:xlink="http://www.w3.org/1999/xlink">
    <!-- Generator: Sketch 3.6.1 (26313) - http://www.bohemiancoding.com/sketch -->
    <title>Shape</title>
    <desc>Created with Sketch.</desc>
    <defs></defs>
    <g id="Page-1" stroke="none" stroke-width="1" fill="none" fill-rule="evenodd">
        <g id="Desktop" transform="translate(-539.000000, -3261.000000)" fill="#473E3D">
            <g id="body" transform="translate(-7.000000, 999.000000)">
                <g id="membership" transform="translate(3.000000, 1941.000000)">
                    <g id="Tiles" transform="translate(250.000000, 272.000000)">
                        <g id="noun_204646_cc" transform="translate(293.000000, 49.000000)">
                            <g id="Group">
                                <path d="M1,34 C1.2,34.4 1.6,34.8 2,34.9 L14.6,39.2 C14.8,39.3 15,39.3 15.2,39.3 C16,39.3 16.7,38.8 16.9,38.1 L26.8,9.1 L27.5,9.3 C30,10.2 32.8,10 35.2,8.9 L36.4,8.3 C37.9,7.6 39.7,7.5 41.2,8 L64.3,16 C64.1,16.9 63.6,18.1 62.7,18.7 C61.7,19.4 60.2,19.4 58.3,18.7 L48,15.2 C47.5,15 47,15.1 46.5,15.3 C46.1,15.5 45.7,16 45.6,16.4 C45.6,16.5 44.1,21.8 39.6,24.3 C36.7,25.8 33.2,25.9 29,24.5 C28,24.2 27,24.7 26.7,25.6 C26.4,26.6 26.9,27.6 27.8,27.9 C30.2,28.7 32.5,29.1 34.6,29.1 C37,29.1 39.3,28.6 41.3,27.5 C45.4,25.3 47.5,21.5 48.4,19.2 L57,22.1 C60.1,23.2 62.6,23 64.6,21.6 C67.7,19.4 68,15.2 68,14.7 C68,13.9 67.5,13.2 66.8,12.9 L42.3,4.4 C39.8,3.5 37,3.7 34.7,4.9 L33.5,5.5 C32,6.2 30.2,6.3 28.6,5.8 L26.6,5.1 C26.5,5 26.4,5 26.2,4.9 L13.6,0.6 C12.6,0.3 11.6,0.8 11.3,1.7 L0.7,32.5 C0.8,33.1 0.8,33.6 1,34 L1,34 Z M14.4,4.7 L23.5,7.8 L14.1,35.1 L5,32 L14.4,4.7 L14.4,4.7 Z M12.2,31.2 C11.9,32.1 10.9,32.6 10,32.3 C9.1,32 8.6,31 8.9,30.1 C9.2,29.2 10.2,28.7 11.1,29 C12,29.4 12.5,30.3 12.2,31.2 L12.2,31.2 Z M24.9,39.9 L33.6,35.6 C34.5,35.2 34.9,34.1 34.4,33.2 C34,32.3 32.9,31.9 32,32.4 L23.3,36.7 C20.5,38.1 19.3,41.5 20.7,44.3 C21.1,45.1 21.7,45.8 22.4,46.4 C21.1,48.1 20.8,50.4 21.8,52.4 C22.5,53.8 23.6,54.8 25.1,55.3 C25.7,55.5 26.3,55.6 26.9,55.6 C26.9,56.5 27.1,57.4 27.5,58.2 C28.5,60.2 30.5,61.4 32.6,61.4 C33.4,61.4 34.3,61.2 35.1,60.8 L36.4,60.2 C36.5,60.9 36.6,61.5 36.9,62.2 C37.9,64.2 39.9,65.4 42,65.4 C42.8,65.4 43.7,65.2 44.5,64.8 L67.4,53.6 C72.5,51.1 77.2,47.9 81.4,44.1 L86.5,39.4 L98.2,33.7 C99.1,33.3 99.5,32.2 99,31.3 L84.7,2.1 C84.5,1.7 84.1,1.3 83.7,1.2 C83.2,1 82.7,1.1 82.3,1.3 L70.3,7.1 C69.4,7.5 69,8.6 69.5,9.5 L83.2,37.5 L78.9,41.5 C75,45.1 70.6,48.1 65.8,50.4 L42.9,61.6 C41.9,62.1 40.7,61.7 40.2,60.7 C39.7,59.7 40.1,58.5 41.1,58 L53.9,51.7 C54.8,51.3 55.2,50.2 54.7,49.3 C54.3,48.4 53.2,48 52.3,48.5 L39.5,54.8 L39.5,54.8 L33.5,57.7 C32.5,58.2 31.3,57.8 30.8,56.8 C30.6,56.3 30.5,55.8 30.7,55.3 C30.9,54.8 31.2,54.4 31.7,54.1 L36.5,51.8 L36.5,51.8 L50.1,45.1 C51,44.7 51.4,43.6 50.9,42.7 C50.5,41.8 49.4,41.4 48.5,41.9 L34.9,48.6 L34.9,48.6 L30.1,50.9 L30.1,50.9 L27.8,52 C27.3,52.2 26.8,52.3 26.3,52.1 C25.8,51.9 25.4,51.6 25.1,51.1 C24.6,50.1 25,48.9 26,48.4 L28.3,47.3 L28.3,47.3 L28.3,47.3 L34.2,44.4 L34.2,44.4 L44.8,39.2 C45.7,38.8 46.1,37.7 45.6,36.8 C45.2,35.9 44.1,35.5 43.2,36 L32.6,41.2 L32.6,41.2 L28.4,43.3 L26.7,44.1 C25.7,44.6 24.5,44.2 24,43.2 C23.4,41.6 23.9,40.4 24.9,39.9 L24.9,39.9 Z M82.2,5 L94.9,30.9 L86.2,35.1 L73.5,9.2 L82.2,5 L82.2,5 Z M87.6,31.1 C87.2,30.2 87.5,29.2 88.4,28.8 C89.3,28.4 90.3,28.7 90.7,29.6 C91.1,30.5 90.8,31.5 89.9,31.9 C89.1,32.3 88,31.9 87.6,31.1 L87.6,31.1 Z" id="Shape"></path>
                            </g>
                        </g>
                    </g>
                </g>
            </g>
        </g>
    </g>
</svg>