<?xml version="1.0" encoding="UTF-8" standalone="no"?>
<svg width="242px" height="135px" viewBox="0 0 242 135" version="1.1" xmlns="http://www.w3.org/2000/svg" xmlns:xlink="http://www.w3.org/1999/xlink" xmlns:sketch="http://www.bohemiancoding.com/sketch/ns">
    <!-- Generator: Sketch 3.5.2 (25235) - http://www.bohemiancoding.com/sketch -->
    <title>quotes</title>
    <desc>Created with Sketch.</desc>
    <defs></defs>
    <g id="Page-1" stroke="none" stroke-width="1" fill="none" fill-rule="evenodd" sketch:type="MSPage">
        <g id="Mobile" sketch:type="MSArtboardGroup" transform="translate(-39.000000, -1899.000000)" fill="#FFFFFF" opacity="0.149999991">
            <g id="body" sketch:type="MSLayerGroup" transform="translate(-11.000000, 574.000000)">
                <g id="realtalk" transform="translate(11.000000, 1021.000000)" sketch:type="MSShapeGroup">
                    <g id="testimonial" transform="translate(39.000000, 117.000000)">
                        <g id="text" transform="translate(0.000000, 187.000000)">
                            <g id="quotes">
                                <path d="M18.877551,41.3654775 L18.877551,23.5687023 L8.84353741,23.5687023 C8.84353741,21.751605 8.98525935,19.9078134 9.26870748,18.0372722 C9.55215561,16.1667309 10.090699,14.483269 10.8843537,12.986836 C11.6780085,11.4904029 12.6984065,10.2879301 13.9455782,9.37938152 C15.19275,8.4708329 16.7800357,8.0165654 18.707483,8.0165654 L18.707483,0 C15.5328639,0 12.7551139,0.641318819 10.3741497,1.9239757 C7.99318537,3.20663258 6.03742262,4.91681609 4.50680272,7.05457756 C2.97618282,9.19233902 1.84240731,11.6774494 1.10544218,14.5099834 C0.368477041,17.3425173 0,20.3620601 0,23.5687023 L0,41.3654775 L18.877551,41.3654775 Z M50,41.3654775 L50,23.5687023 L39.9659864,23.5687023 C39.9659864,21.751605 40.1077083,19.9078134 40.3911565,18.0372722 C40.6746046,16.1667309 41.213148,14.483269 42.0068027,12.986836 C42.8004575,11.4904029 43.8208554,10.2879301 45.0680272,9.37938152 C46.315199,8.4708329 47.9024847,8.0165654 49.829932,8.0165654 L49.829932,0 C46.6553129,0 43.8775629,0.641318819 41.4965986,1.9239757 C39.1156344,3.20663258 37.1598716,4.91681609 35.6292517,7.05457756 C34.0986318,9.19233902 32.9648563,11.6774494 32.2278912,14.5099834 C31.490926,17.3425173 31.122449,20.3620601 31.122449,23.5687023 L31.122449,41.3654775 L50,41.3654775 Z" id="left-quote"></path>
                                <path d="M210.877551,134.365477 L210.877551,116.568702 L200.843537,116.568702 C200.843537,114.751605 200.985259,112.907813 201.268707,111.037272 C201.552156,109.166731 202.090699,107.483269 202.884354,105.986836 C203.678009,104.490403 204.698406,103.28793 205.945578,102.379382 C207.19275,101.470833 208.780036,101.016565 210.707483,101.016565 L210.707483,93 C207.532864,93 204.755114,93.6413188 202.37415,94.9239757 C199.993185,96.2066326 198.037423,97.9168161 196.506803,100.054578 C194.976183,102.192339 193.842407,104.677449 193.105442,107.509983 C192.368477,110.342517 192,113.36206 192,116.568702 L192,134.365477 L210.877551,134.365477 Z M242,134.365477 L242,116.568702 L231.965986,116.568702 C231.965986,114.751605 232.107708,112.907813 232.391156,111.037272 C232.674605,109.166731 233.213148,107.483269 234.006803,105.986836 C234.800457,104.490403 235.820855,103.28793 237.068027,102.379382 C238.315199,101.470833 239.902485,101.016565 241.829932,101.016565 L241.829932,93 C238.655313,93 235.877563,93.6413188 233.496599,94.9239757 C231.115634,96.2066326 229.159872,97.9168161 227.629252,100.054578 C226.098632,102.192339 224.964856,104.677449 224.227891,107.509983 C223.490926,110.342517 223.122449,113.36206 223.122449,116.568702 L223.122449,134.365477 L242,134.365477 Z" id="right-quote" transform="translate(217.000000, 113.682739) scale(-1, -1) translate(-217.000000, -113.682739) "></path>
                            </g>
                        </g>
                    </g>
                </g>
            </g>
        </g>
    </g>
</svg>