<?xml version="1.0" encoding="UTF-8" standalone="no"?>
<svg width="65px" height="63px" viewBox="0 0 65 63" version="1.1" xmlns="http://www.w3.org/2000/svg" xmlns:xlink="http://www.w3.org/1999/xlink">
    <!-- Generator: Sketch 3.6.1 (26313) - http://www.bohemiancoding.com/sketch -->
    <title>icon</title>
    <desc>Created with Sketch.</desc>
    <defs></defs>
    <g id="Page-1" stroke="none" stroke-width="1" fill="none" fill-rule="evenodd">
        <g id="Desktop" transform="translate(-929.000000, -4507.000000)" fill="#473E3D">
            <g id="body" transform="translate(-7.000000, 999.000000)">
                <g id="membership" transform="translate(3.000000, 1941.000000)">
                    <g id="Tiles" transform="translate(250.000000, 272.000000)">
                        <g id="single-person" transform="translate(484.812847, 1262.801636)">
                            <g id="icon" transform="translate(198.000000, 32.000000)">
                                <path d="M35.985763,32.2331315 L1.68045032,32.2331315 C0.908691398,32.2331315 0.283180098,31.6084783 0.283180098,30.837778 C0.283180098,30.0670777 0.908691398,29.4424245 1.68045032,29.4424245 L35.985763,29.4424245 C36.7575219,29.4424245 37.3830332,30.0670777 37.3830332,30.837778 C37.3830332,31.6084783 36.7575219,32.2331315 35.985763,32.2331315 L35.985763,32.2331315 Z" id="Shape"></path>
                                <path d="M31.9355423,61.7095096 C31.1954549,61.4913693 30.772082,60.7155528 30.9905219,59.9764805 L37.9680236,36.3345406 C38.1212576,35.8159342 38.5604662,35.432212 39.0956207,35.3498862 L50.5546338,33.5856942 C49.9701091,26.6559035 47.6008045,20.6670462 46.1481092,17.5493613 C39.826393,27.005207 25.5388393,25.1228751 24.8872456,25.0312469 C24.1229388,24.9238046 23.5910446,24.2177558 23.6986344,23.4549625 C23.8062242,22.6921692 24.5127772,22.1614698 25.2766182,22.2679818 C25.4652497,22.2930981 40.4430549,24.2312442 44.9143196,13.9986517 C45.1248417,13.5172547 45.5882696,13.1944629 46.1136432,13.1637651 C46.6366881,13.1344627 47.1369108,13.3995799 47.4023921,13.854 C47.6245581,14.2340013 52.8461569,23.2972875 53.4306816,34.697791 C53.4674764,35.4126771 52.9560755,36.0391908 52.2481253,36.1480284 L40.3983423,37.9726857 L33.6714177,60.7648552 C33.4916356,61.3727643 32.9350563,61.7667191 32.3314356,61.7667191 C32.2005579,61.7667191 32.0678173,61.7481144 31.9355423,61.7095096 Z" id="Shape"></path>
                                <path d="M22.2431446,27.936838 L10.2722649,27.936838 L5.99987832,14.9935387 C5.75815057,14.2619084 6.15637258,13.4726034 6.88947369,13.2316723 C7.62164328,12.9898111 8.41203247,13.3879519 8.65376022,14.1200474 L12.2931834,25.146131 L22.2426788,25.146131 C23.0144378,25.146131 23.6399491,25.7707842 23.6399491,26.5414845 C23.6399491,27.3121848 23.0149035,27.936838 22.2431446,27.936838 L22.2431446,27.936838 Z" id="Shape"></path>
                                <path d="M40.8836608,11.3270148 C37.8529817,11.3270148 35.3872655,8.86514605 35.3872655,5.83908938 C35.3872655,2.81256759 37.8529817,0.350698852 40.8836608,0.350698852 C43.9148057,0.350698852 46.3805219,2.81256759 46.3805219,5.83908938 C46.3805219,8.86514605 43.9148057,11.3270148 40.8836608,11.3270148 L40.8836608,11.3270148 Z M40.8836608,3.1414059 C39.3941708,3.1414059 38.181806,4.35164252 38.181806,5.83908938 C38.181806,7.32607112 39.3941708,8.53630774 40.8836608,8.53630774 C42.3736166,8.53630774 43.5859814,7.32607112 43.5859814,5.83908938 C43.5859814,4.35164252 42.3736166,3.1414059 40.8836608,3.1414059 L40.8836608,3.1414059 Z" id="Shape"></path>
                                <path d="M20.3787204,61.3653224 C19.6069615,61.3653224 18.9814502,60.7406691 18.9814502,59.9699689 L18.9814502,30.837778 C18.9814502,30.0670777 19.6069615,29.4424245 20.3787204,29.4424245 C21.1504793,29.4424245 21.7759906,30.0670777 21.7759906,30.837778 L21.7759906,59.9699689 C21.7759906,60.7411342 21.1504793,61.3653224 20.3787204,61.3653224 L20.3787204,61.3653224 Z" id="Shape"></path>
                                <path d="M26.9510137,61.3653224 L26.9510137,61.3653224 L6.7138834,61.3648573 C5.94212448,61.3648573 5.31661318,60.740204 5.31661318,59.9695037 C5.31661318,59.1988035 5.94212448,58.5741502 6.7138834,58.5741502 L6.7138834,58.5741502 L26.9510137,58.5746153 C27.7227726,58.5746153 28.3482839,59.1992686 28.3482839,59.9699689 C28.3482839,60.7406691 27.7227726,61.3653224 26.9510137,61.3653224 L26.9510137,61.3653224 Z" id="Shape"></path>
                                <path d="M56.292291,42.4303751 L42.5147409,42.4303751 C41.742982,42.4303751 41.1174707,41.8057218 41.1174707,41.0350215 C41.1174707,40.2643213 41.742982,39.639668 42.5147409,39.639668 L55.2000915,39.639668 L62.4263073,10.6400357 C62.61261,9.89305648 63.3685332,9.43538053 64.1197988,9.62282302 C64.8682699,9.80887015 65.3247115,10.566082 65.1384088,11.3139915 L57.6481089,41.372232 C57.4930119,41.9940945 56.9341038,42.4303751 56.292291,42.4303751 L56.292291,42.4303751 Z" id="Shape"></path>
                                <path d="M42.5147409,62.5113727 C42.1658891,62.5113727 41.8165716,62.38207 41.5455011,62.1211389 C40.9898534,61.5867185 40.9730861,60.7034597 41.5082406,60.148109 L47.563544,53.8676228 L47.563544,41.0350215 C47.563544,40.2643213 48.1890553,39.639668 48.9608142,39.639668 C49.7325731,39.639668 50.3580844,40.2643213 50.3580844,41.0350215 L50.3580844,54.4299503 C50.3580844,54.7908817 50.2178916,55.1373945 49.9673145,55.3978605 L43.5212412,62.0839294 C43.2469105,62.3685816 42.8808257,62.5113727 42.5147409,62.5113727 L42.5147409,62.5113727 Z" id="Shape"></path>
                                <path d="M55.4054902,62.5113727 C55.0389396,62.5113727 54.6733206,62.3681164 54.3989899,62.0834643 L47.9538481,55.3973954 C47.4186936,54.8425098 47.4354609,53.9587859 47.9915744,53.4248306 C48.5462907,52.8904102 49.4316943,52.9066893 49.9668488,53.4625051 L56.4119905,60.1485741 C56.947145,60.7034597 56.9303778,61.5871836 56.3742642,62.1211389 C56.1041253,62.38207 55.7548078,62.5113727 55.4054902,62.5113727 L55.4054902,62.5113727 Z" id="Shape"></path>
                            </g>
                        </g>
                    </g>
                </g>
            </g>
        </g>
    </g>
</svg>