<?xml version="1.0" encoding="UTF-8" standalone="no"?>
<svg width="59px" height="53px" viewBox="0 0 59 53" version="1.1" xmlns="http://www.w3.org/2000/svg" xmlns:xlink="http://www.w3.org/1999/xlink">
    <!-- Generator: Sketch 3.6 (26304) - http://www.bohemiancoding.com/sketch -->
    <title>icon</title>
    <desc>Created with Sketch.</desc>
    <defs></defs>
    <g id="Page-1" stroke="none" stroke-width="1" fill="none" fill-rule="evenodd">
        <g id="Desktop" transform="translate(-932.000000, -3880.000000)" fill="#473E3D">
            <g id="body" transform="translate(-7.000000, 999.000000)">
                <g id="membership" transform="translate(3.000000, 1941.000000)">
                    <g id="Tiles" transform="translate(250.000000, 272.000000)">
                        <g id="coworker-(selected)" transform="translate(484.812847, 631.406455)">
                            <g id="icon" transform="translate(201.206913, 37.366998)">
                                <path d="M36.6168842,24.5189589 L36.6168842,27.5090758 L55.2159365,27.5090758 L55.2159365,48.4398944 L2.90610192,48.4398944 L2.90610192,27.5090758 L21.5033095,27.5090758 L21.5033095,24.5189589 L6.68514484e-14,24.5189589 L0,48.4398944 C8.91470309e-07,51.4300113 2.90610173,51.4300113 2.90610173,51.4300113 L55.2159365,51.4300113 C55.2159365,51.4300113 58.1220384,51.4300113 58.1220384,48.4398944 L58.1220384,24.5189589 L36.6168842,24.5189589 L36.6168842,24.5189589 Z M55.2159365,21.5288419 L55.2159365,11.3624444 L2.90610192,11.3624444 L2.90610192,21.5288419 L6.71095625e-14,21.5288419 L0,11.3624444 C0,8.37232742 2.90610173,8.37232742 2.90610173,8.37232742 L55.2159365,8.37232742 C55.2159365,8.37232742 58.1220384,8.37232742 58.1220384,11.3624444 L58.1220384,21.5288419 L55.2159365,21.5288419 L55.2159365,21.5288419 Z M33.7107823,7.17628064 L33.7107823,2.99011697 L24.4112561,2.99011697 L24.4112561,7.17628064 L21.5051542,7.17628064 L21.5051542,2.99011694 C21.5051542,1.32787867e-16 24.411256,0 24.411256,0 L33.7107823,0 C33.7107823,0 36.6168842,1.32787867e-16 36.6168842,2.99011697 L36.6168842,7.17628064 L33.7107823,7.17628064 L33.7107823,7.17628064 Z M24.4112561,19.1367484 L24.4112561,29.9011694 L33.7107823,29.9011694 L33.7107823,19.1367484 L24.4112561,19.1367484 L24.4112561,19.1367484 Z M27.317358,22.1268653 L27.317358,26.9110524 L30.8046804,26.9110524 L30.8046804,22.1268653 L27.317358,22.1268653 L27.317358,22.1268653 Z" id="Shape"></path>
                            </g>
                        </g>
                    </g>
                </g>
            </g>
        </g>
    </g>
</svg>