<?xml version="1.0" encoding="UTF-8" standalone="no"?>
<svg width="121px" height="59px" viewBox="0 0 121 59" version="1.1" xmlns="http://www.w3.org/2000/svg" xmlns:xlink="http://www.w3.org/1999/xlink">
    <!-- Generator: Sketch 3.6.1 (26313) - http://www.bohemiancoding.com/sketch -->
    <title>icon</title>
    <desc>Created with Sketch.</desc>
    <defs></defs>
    <g id="Page-1" stroke="none" stroke-width="1" fill="none" fill-rule="evenodd">
        <g id="Desktop" transform="translate(-416.000000, -5138.000000)" fill="#473E3D">
            <g id="body" transform="translate(-7.000000, 999.000000)">
                <g id="membership" transform="translate(3.000000, 1941.000000)">
                    <g id="Tiles" transform="translate(250.000000, 272.000000)">
                        <g id="two-person" transform="translate(0.000000, 1893.227414)">
                            <g id="icon" transform="translate(170.000000, 33.000000)">
                                <g transform="translate(58.869180, 0.000000)" id="Shape">
                                    <path d="M34.1130707,30.2871037 L1.593,30.2871037 C0.861403271,30.2871037 0.268443459,29.700163 0.268443459,28.9759926 C0.268443459,28.2518222 0.861403271,27.6648815 1.593,27.6648815 L34.1130707,27.6648815 C34.8446674,27.6648815 35.4376272,28.2518222 35.4376272,28.9759926 C35.4376272,29.700163 34.8446674,30.2871037 34.1130707,30.2871037 L34.1130707,30.2871037 Z"></path>
                                    <path d="M30.6489138,58.0376444 C30.524847,58.0376444 30.3990141,58.020163 30.2736228,57.9838889 C29.5720493,57.7789185 29.1707087,57.0499407 29.377781,56.3554889 L35.9921749,34.1408963 C36.1374346,33.6536 36.5537869,33.2930444 37.061092,33.2156889 L47.9237802,31.5580074 C47.3696741,25.0465926 45.1236677,19.4193037 43.7465704,16.4898444 C37.7538351,25.3748074 24.2098029,23.6061185 23.5921181,23.5200222 C22.8675856,23.4190667 22.3633711,22.7556444 22.465362,22.0389037 C22.5673528,21.322163 23.2371369,20.8235037 23.9612278,20.9235852 C24.140043,20.9471852 38.338406,22.7683185 42.576987,13.1535037 C42.7765535,12.7011704 43.2158647,12.3978667 43.713898,12.3690222 C44.2097237,12.3414889 44.6839149,12.5906 44.9355807,13.0175852 C45.1461851,13.3746444 50.0960529,21.8907481 50.6501591,32.602963 C50.6850391,33.2746889 50.2002514,33.8633778 49.5291427,33.9656444 L38.2960202,35.6801407 L31.9191635,57.0962667 C31.7487373,57.6674741 31.2211222,58.0376444 30.6489138,58.0376444 L30.6489138,58.0376444 Z"></path>
                                    <path d="M21.0856156,26.2501926 L9.73769817,26.2501926 L5.68764579,14.0883259 C5.45849751,13.4008667 5.83599612,12.6592148 6.53094678,12.4328296 C7.22501441,12.2055704 7.9742719,12.5796741 8.20342018,13.2675704 L11.6534484,23.6279704 L21.0851741,23.6279704 C21.8167708,23.6279704 22.4097306,24.2149111 22.4097306,24.9390815 C22.4097306,25.6632519 21.8172123,26.2501926 21.0856156,26.2501926 L21.0856156,26.2501926 Z"></path>
                                    <path d="M38.7560829,10.643163 C35.8831197,10.643163 33.545719,8.32992593 33.545719,5.48656296 C33.545719,2.64276296 35.8831197,0.329525926 38.7560829,0.329525926 C41.6294875,0.329525926 43.9668883,2.64276296 43.9668883,5.48656296 C43.9668883,8.32992593 41.6294875,10.643163 38.7560829,10.643163 L38.7560829,10.643163 Z M38.7560829,2.95174815 C37.3441056,2.95174815 36.194832,4.08891852 36.194832,5.48656296 C36.194832,6.88377037 37.3441056,8.02094074 38.7560829,8.02094074 C40.1685017,8.02094074 41.3177752,6.88377037 41.3177752,5.48656296 C41.3177752,4.08891852 40.1685017,2.95174815 38.7560829,2.95174815 L38.7560829,2.95174815 Z"></path>
                                    <path d="M19.3182156,57.6604815 C18.5866189,57.6604815 17.9936591,57.0735407 17.9936591,56.3493704 L17.9936591,28.9759926 C17.9936591,28.2518222 18.5866189,27.6648815 19.3182156,27.6648815 C20.0498124,27.6648815 20.6427722,28.2518222 20.6427722,28.9759926 L20.6427722,56.3493704 C20.6427722,57.0739778 20.0498124,57.6604815 19.3182156,57.6604815 L19.3182156,57.6604815 Z"></path>
                                    <path d="M25.5484881,57.6604815 L25.5484881,57.6604815 L6.36449418,57.6600444 C5.63289745,57.6600444 5.03993764,57.0731037 5.03993764,56.3489333 C5.03993764,55.624763 5.63289745,55.0378222 6.36449418,55.0378222 L6.36449418,55.0378222 L25.5484881,55.0382593 C26.2800848,55.0382593 26.8730446,55.6252 26.8730446,56.3493704 C26.8730446,57.0735407 26.2800848,57.6604815 25.5484881,57.6604815 L25.5484881,57.6604815 Z"></path>
                                    <path d="M53.3628509,39.8687037 L40.3022819,39.8687037 C39.5706851,39.8687037 38.9777253,39.281763 38.9777253,38.5575926 C38.9777253,37.8334222 39.5706851,37.2464815 40.3022819,37.2464815 L52.3274892,37.2464815 L59.1776541,9.99765926 C59.3542616,9.29577778 60.0708467,8.86573333 60.7830166,9.04185926 C61.4925374,9.21667407 61.9252259,9.92817037 61.7486183,10.6309259 L54.6481123,38.8744444 C54.5010865,39.458763 53.9712639,39.8687037 53.3628509,39.8687037 L53.3628509,39.8687037 Z"></path>
                                    <path d="M40.3022819,58.7373407 C39.9715843,58.7373407 39.6404451,58.6158444 39.3834812,58.3706667 C38.8567492,57.8685111 38.8408545,57.0385778 39.3481596,56.5167556 L45.0883462,50.6154444 L45.0883462,38.5575926 C45.0883462,37.8334222 45.681306,37.2464815 46.4129027,37.2464815 C47.1444994,37.2464815 47.7374593,37.8334222 47.7374593,38.5575926 L47.7374593,51.1438222 C47.7374593,51.482963 47.6045621,51.8085556 47.3670249,52.0532963 L41.2564041,58.3357037 C40.9963495,58.6031704 40.6493157,58.7373407 40.3022819,58.7373407 L40.3022819,58.7373407 Z"></path>
                                    <path d="M52.522199,58.7373407 C52.1747237,58.7373407 51.8281314,58.6027333 51.5680768,58.3352667 L45.458339,52.0528593 C44.9510338,51.5314741 44.9669285,50.7011037 45.494102,50.1993852 C46.0199509,49.6972296 46.8592783,49.7125259 47.3665834,50.2347852 L53.4763212,56.5171926 C53.9836264,57.0385778 53.9677317,57.8689481 53.4405582,58.3706667 C53.1844773,58.6158444 52.8533381,58.7373407 52.522199,58.7373407 L52.522199,58.7373407 Z"></path>
                                </g>
                                <g id="icon-copy" transform="translate(30.906319, 29.500000) scale(-1, 1) translate(-30.906319, -29.500000) ">
                                    <path d="M34.1130707,30.2871037 L1.593,30.2871037 C0.861403271,30.2871037 0.268443459,29.700163 0.268443459,28.9759926 C0.268443459,28.2518222 0.861403271,27.6648815 1.593,27.6648815 L34.1130707,27.6648815 C34.8446674,27.6648815 35.4376272,28.2518222 35.4376272,28.9759926 C35.4376272,29.700163 34.8446674,30.2871037 34.1130707,30.2871037 L34.1130707,30.2871037 Z" id="Shape"></path>
                                    <path d="M30.6489138,58.0376444 C30.524847,58.0376444 30.3990141,58.020163 30.2736228,57.9838889 C29.5720493,57.7789185 29.1707087,57.0499407 29.377781,56.3554889 L35.9921749,34.1408963 C36.1374346,33.6536 36.5537869,33.2930444 37.061092,33.2156889 L47.9237802,31.5580074 C47.3696741,25.0465926 45.1236677,19.4193037 43.7465704,16.4898444 C37.7538351,25.3748074 24.2098029,23.6061185 23.5921181,23.5200222 C22.8675856,23.4190667 22.3633711,22.7556444 22.465362,22.0389037 C22.5673528,21.322163 23.2371369,20.8235037 23.9612278,20.9235852 C24.140043,20.9471852 38.338406,22.7683185 42.576987,13.1535037 C42.7765535,12.7011704 43.2158647,12.3978667 43.713898,12.3690222 C44.2097237,12.3414889 44.6839149,12.5906 44.9355807,13.0175852 C45.1461851,13.3746444 50.0960529,21.8907481 50.6501591,32.602963 C50.6850391,33.2746889 50.2002514,33.8633778 49.5291427,33.9656444 L38.2960202,35.6801407 L31.9191635,57.0962667 C31.7487373,57.6674741 31.2211222,58.0376444 30.6489138,58.0376444 L30.6489138,58.0376444 Z" id="Shape"></path>
                                    <path d="M21.0856156,26.2501926 L9.73769817,26.2501926 L5.68764579,14.0883259 C5.45849751,13.4008667 5.83599612,12.6592148 6.53094678,12.4328296 C7.22501441,12.2055704 7.9742719,12.5796741 8.20342018,13.2675704 L11.6534484,23.6279704 L21.0851741,23.6279704 C21.8167708,23.6279704 22.4097306,24.2149111 22.4097306,24.9390815 C22.4097306,25.6632519 21.8172123,26.2501926 21.0856156,26.2501926 L21.0856156,26.2501926 Z" id="Shape"></path>
                                    <path d="M38.7560829,10.643163 C35.8831197,10.643163 33.545719,8.32992593 33.545719,5.48656296 C33.545719,2.64276296 35.8831197,0.329525926 38.7560829,0.329525926 C41.6294875,0.329525926 43.9668883,2.64276296 43.9668883,5.48656296 C43.9668883,8.32992593 41.6294875,10.643163 38.7560829,10.643163 L38.7560829,10.643163 Z M38.7560829,2.95174815 C37.3441056,2.95174815 36.194832,4.08891852 36.194832,5.48656296 C36.194832,6.88377037 37.3441056,8.02094074 38.7560829,8.02094074 C40.1685017,8.02094074 41.3177752,6.88377037 41.3177752,5.48656296 C41.3177752,4.08891852 40.1685017,2.95174815 38.7560829,2.95174815 L38.7560829,2.95174815 Z" id="Shape"></path>
                                    <path d="M19.3182156,57.6604815 C18.5866189,57.6604815 17.9936591,57.0735407 17.9936591,56.3493704 L17.9936591,28.9759926 C17.9936591,28.2518222 18.5866189,27.6648815 19.3182156,27.6648815 C20.0498124,27.6648815 20.6427722,28.2518222 20.6427722,28.9759926 L20.6427722,56.3493704 C20.6427722,57.0739778 20.0498124,57.6604815 19.3182156,57.6604815 L19.3182156,57.6604815 Z" id="Shape"></path>
                                    <path d="M25.5484881,57.6604815 L25.5484881,57.6604815 L6.36449418,57.6600444 C5.63289745,57.6600444 5.03993764,57.0731037 5.03993764,56.3489333 C5.03993764,55.624763 5.63289745,55.0378222 6.36449418,55.0378222 L6.36449418,55.0378222 L25.5484881,55.0382593 C26.2800848,55.0382593 26.8730446,55.6252 26.8730446,56.3493704 C26.8730446,57.0735407 26.2800848,57.6604815 25.5484881,57.6604815 L25.5484881,57.6604815 Z" id="Shape"></path>
                                    <path d="M53.3628509,39.8687037 L40.3022819,39.8687037 C39.5706851,39.8687037 38.9777253,39.281763 38.9777253,38.5575926 C38.9777253,37.8334222 39.5706851,37.2464815 40.3022819,37.2464815 L52.3274892,37.2464815 L59.1776541,9.99765926 C59.3542616,9.29577778 60.0708467,8.86573333 60.7830166,9.04185926 C61.4925374,9.21667407 61.9252259,9.92817037 61.7486183,10.6309259 L54.6481123,38.8744444 C54.5010865,39.458763 53.9712639,39.8687037 53.3628509,39.8687037 L53.3628509,39.8687037 Z" id="Shape"></path>
                                    <path d="M40.3022819,58.7373407 C39.9715843,58.7373407 39.6404451,58.6158444 39.3834812,58.3706667 C38.8567492,57.8685111 38.8408545,57.0385778 39.3481596,56.5167556 L45.0883462,50.6154444 L45.0883462,38.5575926 C45.0883462,37.8334222 45.681306,37.2464815 46.4129027,37.2464815 C47.1444994,37.2464815 47.7374593,37.8334222 47.7374593,38.5575926 L47.7374593,51.1438222 C47.7374593,51.482963 47.6045621,51.8085556 47.3670249,52.0532963 L41.2564041,58.3357037 C40.9963495,58.6031704 40.6493157,58.7373407 40.3022819,58.7373407 L40.3022819,58.7373407 Z" id="Shape"></path>
                                    <path d="M52.522199,58.7373407 C52.1747237,58.7373407 51.8281314,58.6027333 51.5680768,58.3352667 L45.458339,52.0528593 C44.9510338,51.5314741 44.9669285,50.7011037 45.494102,50.1993852 C46.0199509,49.6972296 46.8592783,49.7125259 47.3665834,50.2347852 L53.4763212,56.5171926 C53.9836264,57.0385778 53.9677317,57.8689481 53.4405582,58.3706667 C53.1844773,58.6158444 52.8533381,58.7373407 52.522199,58.7373407 L52.522199,58.7373407 Z" id="Shape"></path>
                                </g>
                            </g>
                        </g>
                    </g>
                </g>
            </g>
        </g>
    </g>
</svg>