<?xml version="1.0" encoding="UTF-8" standalone="no"?>
<svg width="40px" height="56px" viewBox="0 0 40 56" version="1.1" xmlns="http://www.w3.org/2000/svg" xmlns:xlink="http://www.w3.org/1999/xlink">
    <!-- Generator: Sketch 3.6.1 (26313) - http://www.bohemiancoding.com/sketch -->
    <title>Group</title>
    <desc>Created with Sketch.</desc>
    <defs></defs>
    <g id="Page-1" stroke="none" stroke-width="1" fill="none" fill-rule="evenodd">
        <g id="Desktop" transform="translate(-942.000000, -3278.000000)" fill="#473E3D">
            <g id="body" transform="translate(-7.000000, 999.000000)">
                <g id="membership" transform="translate(3.000000, 1941.000000)">
                    <g id="Tiles" transform="translate(250.000000, 272.000000)">
                        <g id="weekend" transform="translate(484.812847, 0.011275)">
                            <g id="icon" transform="translate(211.206913, 65.366998)">
                                <g id="noun_16138_cc" transform="translate(0.381822, 0.865459)">
                                    <g id="Group">
                                        <path d="M25.4733333,10.0391351 C24.5533333,10.0391351 23.8066667,9.27632432 23.8066667,8.33643243 L23.8066667,6.49145946 C23.7903704,6.11156757 23.5014815,4.04789189 19.6096296,4.04789189 C18.862963,4.04789189 16.4281481,4.26962162 16.4281481,7.12410811 L16.4281481,8.33264865 C16.4281481,9.27178378 15.6814815,10.0353514 14.7614815,10.0353514 C13.8414815,10.0353514 13.0948148,9.27178378 13.0948148,8.33264865 L13.0948148,7.12410811 C13.0948148,2.66832432 16.4718519,0.642486486 19.6096296,0.642486486 C25.5674074,0.642486486 27.14,4.46940541 27.14,6.49145946 L27.14,8.33643243 C27.14,9.27632432 26.3933333,10.0391351 25.4733333,10.0391351 L25.4733333,10.0391351 Z" id="Shape"></path>
                                        <path d="M12.6518519,33.908 C11.7318519,33.908 10.9851852,33.1451892 10.9851852,32.2052973 L10.9851852,8.35837838 C10.9851852,7.41848649 11.7318519,6.65567568 12.6518519,6.65567568 C13.5718519,6.65567568 14.3185185,7.41848649 14.3185185,8.35837838 L14.3185185,32.2052973 C14.3185185,33.1451892 13.5718519,33.908 12.6518519,33.908 L12.6518519,33.908 Z" id="Shape"></path>
                                        <path d="M27.5792593,33.908 C26.66,33.908 25.9125926,33.1451892 25.9125926,32.2052973 L25.9125926,8.88356757 C25.9125926,7.94367568 26.66,7.18086486 27.5792593,7.18086486 C28.4992593,7.18086486 29.2459259,7.94367568 29.2459259,8.88356757 L29.2459259,32.2045405 C29.2459259,33.1451892 28.5014815,33.908 27.5792593,33.908 L27.5792593,33.908 Z" id="Shape"></path>
                                        <path d="M26.7503704,29.0034595 L13.4851852,29.0034595 C10.9896296,29.0034595 5.16518519,26.8058378 3.75407407,23.8022703 C3.66,23.6024865 3.60666667,23.3868108 3.59333333,23.1650811 L3.06962963,14.0665946 C3.06074074,13.9023784 3.07407407,13.7381622 3.11185185,13.5784865 C3.79777778,10.5855135 4.31407407,8.81924324 4.33555556,8.74508108 C4.36296296,8.652 4.40074074,8.55891892 4.44222222,8.47340541 C4.87851852,7.58345946 5.95259259,6.63448649 13.2096296,6.63448649 C13.7814815,6.63448649 14.3977778,6.64205405 15.062963,6.65416216 L25.2037037,6.65416216 C25.8355556,6.63978378 26.4518519,6.63448649 27.0237037,6.63448649 C34.2837037,6.63448649 35.357037,7.58345946 35.7940741,8.47037838 C35.84,8.56194595 35.8762963,8.65502703 35.9022222,8.75264865 C35.9022222,8.75264865 36.4207407,10.5385946 37.1237037,13.5739459 C37.162963,13.7366486 37.1755556,13.9008649 37.1674074,14.0650811 L36.6451852,23.1628108 C36.6311111,23.3845405 36.5748148,23.6017297 36.4814815,23.8052973 C35.062963,26.8088649 29.2437037,29.0034595 26.7503704,29.0034595 L26.7503704,29.0034595 Z M6.89777778,22.5536216 C7.82074074,23.7848649 11.6577778,25.5980541 13.4851852,25.5980541 L26.7503704,25.5980541 C28.5740741,25.5980541 32.4133333,23.7848649 33.34,22.5490811 L33.8259259,14.1180541 C33.4362963,12.4463784 33.1096296,11.1916757 32.9125926,10.4598919 C32.1333333,10.2691892 30.0577778,9.96043243 25.2377778,10.0610811 L15.0303704,10.0610811 C10,9.96497297 8.10148148,10.2737297 7.32518519,10.4598919 C7.12666667,11.1916757 6.8,12.4433514 6.41407407,14.115027 L6.89777778,22.5536216 L6.89777778,22.5536216 Z" id="Shape"></path>
                                        <path d="M33.4377778,55.3567568 C33.0081481,55.3567568 32.5933333,55.3348108 32.2096296,55.3113514 C31.9155556,55.2954595 31.6148148,55.2803243 31.3185185,55.2742703 L20.0696296,54.960973 C17.917037,55.0018378 15.6859259,55.0684324 13.4637037,55.1342703 C11.8666667,55.1811892 10.2733333,55.2303784 8.68518519,55.2674595 C8.39111111,55.275027 8.09481481,55.2924324 7.80296296,55.3075676 C5.92814815,55.4172973 3.36740741,55.5557838 1.70888889,52.9956757 C-0.121481481,50.1487568 0.466666667,44.9566486 0.816296296,41.8539459 L0.858518519,41.4937297 C1.15481481,38.8352432 1.1637037,38.7134054 1.25333333,37.5351351 L1.43111111,35.2292973 C1.54518519,33.7793514 3.46148148,27.8100541 5.41555556,24.3198919 C5.87259259,23.5041081 6.88814815,23.2157838 7.68888889,23.684973 C8.48740741,24.1518919 8.76518519,25.1924324 8.30962963,26.0082162 C6.48888889,29.263027 4.83407407,34.7078919 4.75037037,35.5108108 L4.57481481,37.7924324 C4.48666667,39.0092973 4.47703704,39.1349189 4.16888889,41.8796757 L4.12740741,42.2459459 C3.86814815,44.5374054 3.32888889,49.311027 4.49185185,51.1196757 C5.04,51.971027 5.74518519,52.0126486 7.61925926,51.9051892 C7.94666667,51.8885405 8.27481481,51.8696216 8.60444444,51.8605405 C10.1888889,51.8227027 11.7748148,51.7765405 13.3659259,51.7296216 C15.6022222,51.663027 17.842963,51.5964324 20.0837037,51.5548108 L31.3985185,51.8681081 C31.722963,51.8779459 32.0540741,51.8945946 32.3837037,51.9135135 C34.2651852,52.0111351 34.9577778,51.971027 35.5088889,51.1158919 C36.6644444,49.3238919 36.1325926,44.5661622 35.8762963,42.276973 L35.8318519,41.8781622 C35.5237037,39.1023784 35.517037,39.0115676 35.4214815,37.7508108 L35.2481481,35.5115676 C35.1659259,34.7124324 33.5096296,29.2698378 31.6911111,26.0082162 C31.2355556,25.1924324 31.5133333,24.1518919 32.3140741,23.6872432 C33.1103704,23.2157838 34.1325926,23.5041081 34.5851852,24.3244324 C36.5392593,27.8229189 38.4555556,33.7869189 38.5681481,35.2338378 L38.7459259,37.4882162 C38.837037,38.7118919 38.842963,38.7996757 39.1422222,41.4967568 L39.1859259,41.891027 C39.5340741,44.9869189 40.1133333,50.1631351 38.2918519,52.9896216 C36.9792593,55.0245405 35.0933333,55.3567568 33.4377778,55.3567568 L33.4377778,55.3567568 Z" id="Shape"></path>
                                        <path d="M29.2103704,47.5780541 C29.2014815,47.5780541 29.1844444,47.5795676 29.1666667,47.5780541 L10.3711111,47.5780541 C9.89703704,47.5780541 9.44888889,47.3737297 9.13185185,47.015027 C8.8162963,46.6555676 8.66518519,46.1772973 8.71407407,45.6982703 L9.54740741,37.5631351 C9.63555556,36.6966486 10.3518519,36.0375135 11.2044444,36.0375135 L28.0555556,36.0375135 C28.8866667,36.0375135 29.5918519,36.6625946 29.7066667,37.5048649 L30.7666667,45.2585946 C30.8385185,45.4492973 30.877037,45.6566486 30.877037,45.8738378 C30.877037,46.8152432 30.1333333,47.5780541 29.2103704,47.5780541 L29.2103704,47.5780541 Z M12.2222222,44.1726486 L27.2503704,44.1726486 L26.6059259,39.4429189 L12.7051852,39.4429189 L12.2222222,44.1726486 L12.2222222,44.1726486 Z" id="Shape"></path>
                                    </g>
                                </g>
                            </g>
                        </g>
                    </g>
                </g>
            </g>
        </g>
    </g>
</svg>