<?xml version="1.0" encoding="UTF-8" standalone="no"?>
<svg width="54px" height="53px" viewBox="0 0 54 53" version="1.1" xmlns="http://www.w3.org/2000/svg" xmlns:xlink="http://www.w3.org/1999/xlink">
    <!-- Generator: Sketch 3.6.1 (26313) - http://www.bohemiancoding.com/sketch -->
    <title>Shape</title>
    <desc>Created with Sketch.</desc>
    <defs></defs>
    <g id="Page-1" stroke="none" stroke-width="1" fill="none" fill-rule="evenodd">
        <g id="Desktop" transform="translate(-452.000000, -3891.000000)" stroke="#FFFFFF" fill="#473E3D">
            <g id="body" transform="translate(-7.000000, 999.000000)">
                <g id="membership" transform="translate(3.000000, 1941.000000)">
                    <g id="Tiles" transform="translate(250.000000, 272.000000)">
                        <g id="weeknights" transform="translate(1.916256, 632.375858)">
                            <g id="icon" transform="translate(204.206913, 34.366998)">
                                <g id="Group" transform="translate(0.562545, 0.257144)">
                                    <path d="M49.799938,43.8354096 C47.3201219,44.7304789 44.7674674,45.1829678 42.2131575,45.1829678 C29.8902264,45.1829678 19.8650153,35.1819722 19.8650153,22.8888066 C19.8650153,20.3406666 20.3202552,17.7941779 21.2174918,15.3203517 C21.5452645,14.4153739 21.3201277,13.4047053 20.6380955,12.7259719 C19.9560633,12.0455872 18.9429475,11.8209941 18.0374339,12.1479752 C7.24907517,16.0403706 0,26.3287131 0,37.7515808 C0,52.776194 12.2534036,65 27.3143961,65 C38.764922,65 49.0781757,57.7684347 52.9799958,47.0061348 C53.3077686,46.1028084 53.0826317,45.0921398 52.4005996,44.4134064 C51.7202228,43.7330216 50.7054516,43.5034743 49.799938,43.8354096 L49.799938,43.8354096 Z M27.3143961,60.045742 C14.9914649,60.045742 4.96625383,50.0447464 4.96625383,37.7515808 C4.96625383,30.1236748 8.91939187,23.1133996 15.1768717,19.062468 C14.9914649,20.3324095 14.8987615,21.610608 14.8987615,22.8888066 C14.8987615,37.9134198 27.1521651,50.1372259 42.2131575,50.1372259 C43.4961064,50.1372259 44.7757445,50.0447464 46.0487609,49.8597874 C41.9896761,56.1005011 34.9607715,60.045742 27.3143961,60.045742 L27.3143961,60.045742 Z" id="Shape"></path>
                                </g>
                            </g>
                        </g>
                    </g>
                </g>
            </g>
        </g>
    </g>
</svg>